<svg width="528" height="528" viewBox="0 0 528 528" fill="none" xmlns="http://www.w3.org/2000/svg">
<g clip-path="url(#clip0_1774_1868)">
<path fill-rule="evenodd" clip-rule="evenodd" d="M90.7709 160.859C73.8509 162.909 45.8609 136.509 39.1309 117.059C31.1909 132.749 35.4109 153.459 45.1609 176.459C28.9709 186.619 14.9309 197.709 16.5009 215.179C30.3609 209.149 59.9609 207.729 67.2809 219.219C72.0509 198.359 80.0809 178.709 90.7709 160.849V160.859ZM1.21094 318.779C6.71094 335.489 24.3409 347.179 47.4809 356.519C43.2109 375.199 41.1309 392.879 54.5809 404.199C60.0809 390.289 79.3909 368.859 92.7509 371.049C81.8309 353.549 73.4909 334.259 68.3009 313.699C57.2709 326.669 19.5309 327.669 1.22094 318.779H1.21094ZM214.361 68.8992C200.731 58.6192 199.541 19.8292 208.581 1.19922C191.871 6.67922 180.201 24.3092 170.851 47.4992C152.221 43.2092 134.431 41.1092 123.201 54.5792C137.481 60.2092 159.821 80.5892 156.131 93.9192C173.851 82.6992 193.461 74.1692 214.351 68.8992H214.361ZM526.171 208.569C520.761 191.859 503.081 180.239 479.901 170.859C484.241 152.209 486.261 134.489 472.801 123.189C467.201 137.369 447.131 159.499 433.731 156.149C444.971 173.739 453.531 193.199 458.841 213.949C469.581 200.719 507.751 199.639 526.171 208.559V208.569Z" fill="#DAB16F"/>
<path fill-rule="evenodd" clip-rule="evenodd" d="M410.33 39.1409C394.62 31.1709 373.91 35.4009 350.91 45.1909C340.8 28.9309 329.69 14.9309 312.21 16.4809C318.35 30.6309 319.71 60.9709 307.55 67.6209C328.66 72.2809 348.52 80.2809 366.55 91.0009C364.24 74.1009 390.81 45.9109 410.33 39.1309V39.1409ZM437.43 366.441C454.43 365.341 481.62 391.181 488.23 410.361C496.2 394.661 491.95 373.961 482.2 350.881C498.46 340.771 512.46 329.711 510.89 312.181C497.11 318.211 467.97 319.671 460.33 308.461C455.72 329.181 447.89 348.681 437.43 366.441ZM314.16 459.451C326.69 470.971 327.6 508.071 318.79 526.161C335.51 520.701 347.14 503.041 356.54 479.891C375.2 484.211 392.91 486.281 404.2 472.771C390.41 467.341 369.14 448.221 370.98 434.911V434.871C353.64 445.801 334.54 454.181 314.16 459.441V459.451ZM160.97 437.681C161.83 454.671 136.09 481.601 117.07 488.251C132.76 496.191 153.48 491.971 176.44 482.221C186.59 498.481 197.66 512.431 215.24 510.911C209.32 497.311 207.75 468.911 218.39 460.691C197.87 455.971 178.56 448.121 160.96 437.681H160.97Z" fill="#DAB16F"/>
<path fill-rule="evenodd" clip-rule="evenodd" d="M143.471 102.589C126.961 98.1891 111.091 62.9191 112.341 42.2891C98.9806 53.7191 94.9506 74.4891 95.1606 99.4791C76.2906 102.629 59.1106 107.499 53.8906 124.289C69.1206 124.029 97.2706 134.139 99.3006 147.769C111.561 130.499 126.491 115.229 143.471 102.589ZM424.861 143.359C429.361 126.899 464.551 111.149 485.071 112.339C473.641 98.9691 452.891 94.9491 427.881 95.1691C424.691 76.3291 419.861 59.1191 403.091 53.8791C403.331 69.2291 393.081 97.6891 379.371 99.3291C396.721 111.519 412.101 126.409 424.861 143.369V143.359Z" fill="#DAB16F"/>
<path fill-rule="evenodd" clip-rule="evenodd" d="M292.669 64.8903C283.969 50.2203 297.739 13.8803 313.209 0.100302C295.669 -1.2197 278.159 10.6103 260.639 28.4203C245.099 17.3103 229.459 8.6203 213.919 16.7603C224.999 27.4603 237.859 54.9403 229.149 65.7903C240.369 63.8303 251.899 62.8203 263.689 62.8203C273.509 62.8203 283.199 63.5303 292.649 64.8903H292.669ZM385.049 425.17C401.139 430.83 416.219 464.97 415.049 485.04C428.389 473.67 432.399 452.85 432.209 427.92C451.099 424.72 468.209 419.85 473.499 403.08C458.599 403.36 431.389 393.68 428.319 380.53C416.289 397.54 401.679 412.62 385.059 425.17H385.049ZM64.3193 235.01C49.2893 243.05 13.6693 229.43 0.0992948 214.16C-1.21071 231.67 10.5593 249.19 28.4293 266.74C17.3193 282.3 8.56929 297.89 16.7493 313.51C27.2293 302.64 53.5993 290.12 64.9493 297.66C63.1393 286.81 62.1893 275.66 62.1893 264.29C62.1893 254.34 62.9193 244.58 64.3293 235L64.3193 235.01Z" fill="#DAB16F"/>
<path fill-rule="evenodd" clip-rule="evenodd" d="M235.421 463.83C242.591 479.27 229.191 513.93 214.181 527.28C231.701 528.6 249.161 516.81 266.741 498.92C282.321 510.08 297.921 518.78 313.461 510.6C302.851 500.36 290.541 474.69 297.191 463.02C286.291 464.83 275.101 465.82 263.701 465.82C254.101 465.82 244.651 465.14 235.411 463.83H235.421ZM102.251 384.91C96.7505 401.02 62.4705 416.24 42.3105 415.04C53.7305 428.37 74.4505 432.41 99.4805 432.18C102.631 451.07 107.501 468.25 124.271 473.54C123.991 458.68 133.591 431.65 146.611 428.35C129.691 416.24 114.701 401.57 102.251 384.91ZM498.961 260.63C510.041 245.04 518.761 229.5 510.641 213.91C500.101 224.8 473.411 237.44 462.201 229.62C464.181 240.89 465.211 252.49 465.211 264.33C465.211 273.82 464.511 283.15 463.251 292.31C478.371 284.45 513.771 298.03 527.291 313.25C528.611 295.69 516.781 278.16 498.951 260.64L498.961 260.63Z" fill="#DAB16F"/>
<path fill-rule="evenodd" clip-rule="evenodd" d="M465.199 264.3C465.199 375.6 374.989 465.81 263.699 465.81C152.409 465.81 62.1992 375.61 62.1992 264.3C62.1992 152.99 152.409 62.8203 263.699 62.8203C374.989 62.8203 465.199 153.03 465.199 264.3Z" fill="#2255A4"/>
<path fill-rule="evenodd" clip-rule="evenodd" d="M366.591 264.3C366.591 321.15 320.511 367.21 263.681 367.21C206.851 367.21 160.801 321.15 160.801 264.3C160.801 207.45 206.861 161.41 263.681 161.41C320.501 161.41 366.591 207.49 366.591 264.3Z" fill="#B2E2EC"/>
<path fill-rule="evenodd" clip-rule="evenodd" d="M263.701 141.859C266.421 141.859 268.631 144.079 268.631 146.829C268.631 149.579 266.421 151.759 263.701 151.759C260.981 151.759 258.751 149.529 258.771 146.809C258.771 144.079 260.971 141.859 263.701 141.859ZM263.701 376.919C266.421 376.919 268.631 379.139 268.631 381.869C268.631 384.599 266.421 386.799 263.701 386.799C260.981 386.799 258.751 384.569 258.771 381.849C258.771 379.129 260.971 376.919 263.701 376.919ZM245.461 143.239C248.161 142.839 250.651 144.699 251.051 147.399C251.461 150.079 249.611 152.609 246.931 153.009C244.211 153.409 241.701 151.549 241.291 148.849C240.881 146.169 242.741 143.639 245.461 143.239ZM280.471 375.659C283.191 375.259 285.681 377.119 286.091 379.809C286.491 382.509 284.631 385.019 281.951 385.439C279.251 385.839 276.731 383.989 276.321 381.269C275.921 378.579 277.771 376.059 280.471 375.659ZM227.601 147.309C230.221 146.499 232.991 147.979 233.761 150.579C234.571 153.179 233.101 155.949 230.511 156.749C227.891 157.559 225.121 156.069 224.321 153.469C223.531 150.869 224.981 148.119 227.601 147.309ZM296.881 371.899C299.481 371.089 302.251 372.579 303.041 375.179C303.851 377.779 302.381 380.529 299.781 381.349C297.181 382.159 294.411 380.699 293.601 378.079C292.811 375.479 294.261 372.709 296.881 371.899ZM210.561 153.989C213.021 152.809 215.971 153.839 217.141 156.299C218.321 158.759 217.291 161.699 214.841 162.899C212.361 164.059 209.421 163.049 208.221 160.569C207.041 158.129 208.081 155.169 210.551 153.989H210.561ZM312.531 365.759C315.011 364.599 317.951 365.629 319.111 368.089C320.29 370.529 319.271 373.479 316.831 374.669C314.361 375.849 311.421 374.809 310.221 372.349C309.041 369.909 310.071 366.929 312.531 365.749V365.759ZM194.711 163.149C196.941 161.609 200.011 162.199 201.571 164.459C203.091 166.689 202.521 169.779 200.261 171.309C198.011 172.849 194.941 172.249 193.401 170.019C191.861 167.739 192.461 164.679 194.711 163.149ZM327.101 357.349C329.351 355.829 332.421 356.399 333.971 358.659C335.491 360.909 334.911 363.979 332.661 365.519C330.411 367.059 327.341 366.459 325.791 364.229C324.271 361.969 324.841 358.889 327.101 357.349ZM180.391 174.549C182.391 172.689 185.501 172.819 187.361 174.809C189.221 176.819 189.091 179.939 187.101 181.809C185.101 183.639 181.971 183.539 180.131 181.519C178.271 179.549 178.381 176.409 180.391 174.549ZM340.251 346.869C342.271 345.009 345.391 345.139 347.241 347.129C349.101 349.129 348.971 352.259 346.981 354.119C344.981 355.959 341.841 355.849 340.011 353.839C338.131 351.849 338.251 348.729 340.251 346.869ZM167.941 187.959C169.641 185.839 172.741 185.489 174.881 187.199C177.021 188.879 177.371 191.999 175.651 194.139C173.951 196.279 170.851 196.619 168.711 194.909C166.571 193.209 166.221 190.109 167.941 187.959ZM351.691 334.549C353.391 332.399 356.491 332.059 358.631 333.779C360.761 335.459 361.121 338.569 359.401 340.699C357.701 342.849 354.601 343.189 352.461 341.479C350.311 339.799 349.981 336.669 351.681 334.559L351.691 334.549Z" fill="#DAB16F"/>
<path fill-rule="evenodd" clip-rule="evenodd" d="M157.65 203.069C159.01 200.719 162.03 199.919 164.41 201.269C166.76 202.629 167.56 205.639 166.21 208.029C164.83 210.369 161.81 211.179 159.45 209.819C157.1 208.449 156.3 205.419 157.65 203.059V203.069ZM361.2 320.619C362.56 318.269 365.57 317.469 367.94 318.819C370.3 320.189 371.09 323.199 369.75 325.579C368.36 327.919 365.35 328.729 362.99 327.369C360.63 325.989 359.82 322.969 361.19 320.609L361.2 320.619Z" fill="#DAB16F"/>
<path fill-rule="evenodd" clip-rule="evenodd" d="M149.709 219.571C150.699 217.031 153.559 215.791 156.109 216.791C158.649 217.781 159.899 220.661 158.889 223.181C157.889 225.721 155.009 226.961 152.469 225.981C149.959 225.001 148.699 222.121 149.699 219.581L149.709 219.571ZM368.499 305.471C369.499 302.951 372.359 301.691 374.899 302.711C377.439 303.701 378.699 306.571 377.659 309.101C376.669 311.641 373.809 312.891 371.269 311.901C368.749 310.901 367.499 308.021 368.489 305.481L368.499 305.471Z" fill="#DAB16F"/>
<path fill-rule="evenodd" clip-rule="evenodd" d="M144.31 237.049C144.91 234.399 147.56 232.729 150.21 233.329C152.88 233.939 154.53 236.599 153.93 239.269C153.32 241.919 150.66 243.589 148.03 242.969C145.36 242.359 143.7 239.699 144.31 237.049ZM373.45 289.399C374.06 286.749 376.7 285.069 379.37 285.679C382.04 286.279 383.69 288.929 383.09 291.599C382.48 294.249 379.83 295.919 377.17 295.299C374.5 294.699 372.85 292.049 373.45 289.399Z" fill="#DAB16F"/>
<path fill-rule="evenodd" clip-rule="evenodd" d="M141.579 255.149C141.789 252.419 144.149 250.399 146.879 250.609C149.599 250.799 151.619 253.199 151.419 255.909C151.229 258.609 148.829 260.649 146.119 260.449C143.399 260.239 141.369 257.859 141.579 255.149ZM375.969 272.759C376.179 270.039 378.539 268.009 381.269 268.219C383.989 268.409 386.009 270.789 385.809 273.519C385.599 276.219 383.219 278.259 380.509 278.059C377.809 277.849 375.759 275.469 375.969 272.759Z" fill="#DAB16F"/>
<path fill-rule="evenodd" clip-rule="evenodd" d="M141.579 273.461C141.369 270.741 143.419 268.361 146.139 268.171C148.869 267.981 151.209 270.011 151.429 272.711C151.629 275.431 149.589 277.811 146.869 278.021C144.169 278.211 141.789 276.171 141.579 273.461ZM375.969 255.941C375.779 253.211 377.809 250.851 380.549 250.651C383.269 250.451 385.629 252.491 385.819 255.191C386.019 257.921 383.979 260.301 381.259 260.491C378.559 260.681 376.169 258.651 375.969 255.931V255.941ZM144.289 291.551C143.689 288.871 145.359 286.251 148.009 285.631C150.679 285.031 153.309 286.701 153.929 289.351C154.529 292.021 152.859 294.651 150.189 295.251C147.549 295.861 144.899 294.201 144.289 291.551ZM373.459 239.301C372.859 236.631 374.539 234.001 377.179 233.401C379.849 232.791 382.489 234.471 383.079 237.121C383.689 239.791 382.039 242.411 379.379 243.021C376.729 243.641 374.079 241.971 373.459 239.301ZM149.669 309.041C148.679 306.481 149.929 303.641 152.469 302.641C155.009 301.641 157.879 302.881 158.889 305.441C159.879 307.981 158.629 310.841 156.079 311.841C153.539 312.831 150.679 311.581 149.679 309.041H149.669ZM368.509 223.221C367.519 220.691 368.769 217.811 371.309 216.821C373.849 215.821 376.709 217.081 377.709 219.621C378.709 222.161 377.449 225.041 374.909 226.021C372.369 227.011 369.489 225.761 368.509 223.221ZM157.609 325.521C156.249 323.171 157.059 320.171 159.439 318.781C161.799 317.441 164.809 318.241 166.169 320.591C167.529 322.971 166.729 325.991 164.349 327.351C161.989 328.711 158.969 327.891 157.609 325.521ZM361.219 208.051C359.859 205.711 360.669 202.681 363.039 201.321C365.389 199.961 368.409 200.771 369.769 203.111C371.129 205.491 370.319 208.511 367.939 209.871C365.599 211.231 362.569 210.401 361.209 208.041L361.219 208.051ZM167.919 340.651C166.239 338.511 166.579 335.391 168.709 333.711C170.849 332.021 173.949 332.351 175.649 334.501C177.349 336.641 176.989 339.741 174.859 341.421C172.719 343.121 169.619 342.781 167.919 340.641V340.651ZM351.739 194.151C350.059 192.011 350.399 188.911 352.529 187.211C354.669 185.511 357.769 185.871 359.469 187.981C361.169 190.131 360.809 193.231 358.679 194.941C356.539 196.621 353.439 196.281 351.739 194.151ZM180.369 354.051C178.369 352.211 178.249 349.071 180.109 347.081C181.969 345.071 185.089 344.961 187.079 346.821C189.079 348.681 189.199 351.801 187.339 353.791C185.479 355.791 182.359 355.911 180.369 354.051ZM340.299 181.791C338.279 179.951 338.179 176.811 340.039 174.831C341.899 172.821 345.019 172.711 347.009 174.571C349.019 176.431 349.129 179.551 347.269 181.541C345.409 183.541 342.309 183.661 340.299 181.781V181.791Z" fill="#DAB16F"/>
<path fill-rule="evenodd" clip-rule="evenodd" d="M194.681 365.478C192.431 363.938 191.831 360.848 193.381 358.618C194.901 356.368 197.991 355.768 200.261 357.328C202.511 358.848 203.091 361.938 201.531 364.198C199.991 366.428 196.921 367.028 194.681 365.478ZM327.171 171.318C324.921 169.768 324.321 166.708 325.881 164.458C327.421 162.188 330.471 161.628 332.741 163.168C334.991 164.708 335.591 167.778 334.031 170.038C332.491 172.268 329.401 172.868 327.171 171.318Z" fill="#DAB16F"/>
<path fill-rule="evenodd" clip-rule="evenodd" d="M210.511 374.64C208.051 373.48 207.041 370.5 208.211 368.06C209.411 365.6 212.351 364.57 214.791 365.76C217.271 366.94 218.281 369.9 217.091 372.34C215.931 374.78 212.951 375.82 210.511 374.64ZM312.581 162.91C310.141 161.73 309.101 158.77 310.281 156.31C311.481 153.85 314.421 152.82 316.861 154.01C319.341 155.19 320.351 158.15 319.161 160.61C318.001 163.05 315.021 164.07 312.581 162.91Z" fill="#DAB16F"/>
<path fill-rule="evenodd" clip-rule="evenodd" d="M227.549 381.328C224.929 380.518 223.489 377.768 224.289 375.148C225.109 372.548 227.869 371.078 230.479 371.898C233.079 372.708 234.539 375.458 233.749 378.078C232.919 380.698 230.159 382.138 227.549 381.328ZM296.939 156.748C294.319 155.938 292.859 153.178 293.669 150.578C294.479 147.988 297.249 146.508 299.859 147.328C302.449 148.118 303.919 150.888 303.109 153.498C302.299 156.098 299.539 157.558 296.929 156.748H296.939Z" fill="#DAB16F"/>
<path fill-rule="evenodd" clip-rule="evenodd" d="M245.4 385.421C242.69 385.001 240.85 382.491 241.26 379.791C241.66 377.091 244.18 375.231 246.89 375.631C249.58 376.051 251.43 378.561 251.03 381.261C250.61 383.981 248.11 385.801 245.4 385.421ZM280.53 153.001C277.84 152.611 276 150.091 276.39 147.371C276.79 144.691 279.31 142.831 282.02 143.231C284.72 143.651 286.58 146.161 286.16 148.861C285.74 151.541 283.23 153.401 280.53 153.001ZM268.64 80.3208C268.64 83.0408 266.43 85.2508 263.71 85.2508C260.99 85.2508 258.76 83.0408 258.76 80.3208C258.76 77.6008 260.99 75.3708 263.71 75.3908C266.43 75.3908 268.64 77.5908 268.64 80.3208ZM268.64 448.321C268.64 451.041 266.43 453.251 263.71 453.251C260.99 453.251 258.76 451.031 258.76 448.321C258.76 445.611 260.99 443.371 263.71 443.391C266.43 443.391 268.64 445.591 268.64 448.321Z" fill="#DAB16F"/>
<path fill-rule="evenodd" clip-rule="evenodd" d="M249.99 80.7588C250.28 83.4788 248.28 85.8988 245.57 86.1788C242.87 86.4588 240.43 84.4688 240.17 81.7688C239.88 79.0488 241.87 76.6288 244.58 76.3488C247.3 76.0788 249.71 78.0688 249.98 80.7688L249.99 80.7588ZM287.22 446.879C287.51 449.579 285.52 451.999 282.81 452.299C280.11 452.559 277.68 450.579 277.4 447.869C277.14 445.169 279.13 442.739 281.83 442.469C284.53 442.199 286.96 444.179 287.23 446.889L287.22 446.879ZM231.49 83.0788C232.04 85.7488 230.33 88.3688 227.66 88.9188C224.99 89.4488 222.37 87.7388 221.82 85.0688C221.26 82.3988 223 79.7988 225.67 79.2288C228.32 78.6788 230.94 80.4088 231.49 83.0788ZM305.57 443.539C306.12 446.229 304.39 448.829 301.72 449.389C299.05 449.929 296.45 448.209 295.88 445.549C295.35 442.859 297.06 440.259 299.73 439.709C302.4 439.149 305.02 440.869 305.57 443.539ZM213.32 87.2688C214.13 89.8588 212.69 92.6588 210.08 93.4588C207.48 94.2888 204.7 92.8288 203.89 90.2088C203.08 87.6088 204.52 84.8388 207.14 84.0288C209.73 83.2188 212.51 84.6788 213.32 87.2688ZM323.49 438.399C324.3 440.989 322.86 443.769 320.24 444.579C317.65 445.409 314.87 443.969 314.06 441.349C313.25 438.749 314.69 435.979 317.29 435.169C319.89 434.359 322.68 435.799 323.48 438.409L323.49 438.399ZM195.68 93.2788C196.75 95.7888 195.6 98.6988 193.09 99.7588C190.58 100.849 187.67 99.6788 186.6 97.1588C185.52 94.6688 186.66 91.7588 189.2 90.6888C191.71 89.6188 194.6 90.7688 195.67 93.2788H195.68ZM340.78 431.469C341.85 433.959 340.7 436.889 338.19 437.939C335.68 439.029 332.77 437.879 331.7 435.349C330.62 432.859 331.78 429.929 334.3 428.859C336.81 427.789 339.7 428.959 340.77 431.459L340.78 431.469ZM178.73 101.039C180.04 103.429 179.18 106.429 176.79 107.749C174.43 109.079 171.4 108.219 170.09 105.809C168.77 103.449 169.62 100.419 172.02 99.0988C174.41 97.8088 177.41 98.6488 178.73 101.039ZM357.31 422.819C358.63 425.209 357.76 428.209 355.37 429.529C352.99 430.849 349.98 429.979 348.67 427.589C347.35 425.209 348.2 422.209 350.58 420.879C352.97 419.569 355.97 420.409 357.31 422.819ZM162.66 110.469C164.21 112.699 163.68 115.789 161.41 117.329C159.18 118.899 156.11 118.349 154.54 116.099C152.99 113.889 153.54 110.779 155.77 109.249C158.02 107.679 161.09 108.229 162.66 110.479V110.469ZM372.86 412.529C374.43 414.779 373.86 417.849 371.63 419.389C369.38 420.959 366.31 420.409 364.74 418.179C363.2 415.929 363.75 412.839 365.97 411.309C368.22 409.739 371.29 410.289 372.86 412.539V412.529ZM147.6 121.479C149.36 123.549 149.14 126.669 147.07 128.439C145 130.219 141.89 129.969 140.12 127.909C138.34 125.839 138.58 122.709 140.65 120.959C142.72 119.159 145.84 119.399 147.6 121.489V121.479ZM387.28 400.719C389.06 402.789 388.82 405.909 386.74 407.689C384.67 409.469 381.57 409.219 379.79 407.139C378.01 405.089 378.25 401.949 380.33 400.189C382.4 398.409 385.52 398.639 387.28 400.729V400.719ZM133.75 133.949C135.73 135.819 135.82 138.949 133.92 140.919C132.04 142.909 128.92 142.989 126.95 141.089C124.98 139.219 124.9 136.089 126.79 134.099C128.67 132.129 131.81 132.059 133.76 133.939L133.75 133.949ZM400.44 387.519C402.4 389.399 402.49 392.539 400.61 394.509C398.73 396.489 395.59 396.569 393.64 394.689C391.67 392.819 391.59 389.689 393.48 387.689C395.36 385.739 398.48 385.649 400.45 387.529L400.44 387.519ZM121.23 147.759C123.38 149.419 123.77 152.529 122.12 154.679C120.44 156.839 117.32 157.229 115.17 155.549C113.02 153.889 112.63 150.779 114.31 148.649C115.97 146.479 119.08 146.079 121.23 147.759ZM412.2 373.059C414.37 374.729 414.76 377.829 413.09 379.979C411.43 382.149 408.32 382.539 406.15 380.869C404 379.189 403.61 376.079 405.27 373.949C406.94 371.789 410.06 371.379 412.19 373.059H412.2Z" fill="#DAB16F"/>
<path fill-rule="evenodd" clip-rule="evenodd" d="M110.169 162.752C112.479 164.192 113.199 167.262 111.759 169.582C110.299 171.882 107.239 172.592 104.949 171.132C102.619 169.712 101.929 166.642 103.369 164.342C104.819 162.022 107.859 161.332 110.179 162.752H110.169ZM422.439 357.492C424.769 358.932 425.469 361.972 424.029 364.302C422.569 366.602 419.519 367.312 417.219 365.872C414.899 364.422 414.189 361.382 415.629 359.062C417.089 356.752 420.129 356.052 422.439 357.492Z" fill="#DAB16F"/>
<path fill-rule="evenodd" clip-rule="evenodd" d="M100.7 178.81C103.16 180.01 104.16 182.98 102.95 185.42C101.75 187.86 98.7802 188.88 96.3302 187.69C93.8902 186.47 92.8702 183.5 94.0802 181.06C95.2802 178.62 98.2502 177.61 100.7 178.81ZM431.07 340.94C433.51 342.14 434.53 345.1 433.32 347.56C432.12 350 429.16 351.02 426.7 349.81C424.26 348.61 423.24 345.64 424.47 343.2C425.65 340.74 428.63 339.75 431.07 340.95V340.94Z" fill="#DAB16F"/>
<path fill-rule="evenodd" clip-rule="evenodd" d="M92.8791 195.75C95.4291 196.68 96.7591 199.52 95.7891 202.09C94.8491 204.64 91.9991 205.96 89.4291 204.98C86.8791 204.06 85.5691 201.2 86.5391 198.64C87.4891 196.09 90.3191 194.77 92.8791 195.75ZM437.939 323.63C440.499 324.6 441.819 327.43 440.849 329.99C439.909 332.55 437.069 333.85 434.509 332.9C431.939 331.97 430.649 329.1 431.599 326.55C432.559 324 435.389 322.69 437.939 323.64V323.63Z" fill="#DAB16F"/>
<path fill-rule="evenodd" clip-rule="evenodd" d="M86.8204 213.37C89.4604 214.05 91.0604 216.75 90.3604 219.39C89.6704 222.04 86.9804 223.61 84.3304 222.92C81.7104 222.24 80.1304 219.56 80.8004 216.9C81.4804 214.26 84.1804 212.7 86.8204 213.37ZM443.06 305.7C445.68 306.38 447.26 309.08 446.59 311.71C445.91 314.36 443.21 315.95 440.57 315.24C437.95 314.56 436.35 311.87 437.04 309.22C437.72 306.58 440.42 305.01 443.05 305.69L443.06 305.7Z" fill="#DAB16F"/>
<path fill-rule="evenodd" clip-rule="evenodd" d="M82.5804 231.519C85.2704 231.939 87.1304 234.459 86.7104 237.149C86.3104 239.849 83.7904 241.689 81.0804 241.269C78.4004 240.849 76.5204 238.349 76.9604 235.649C77.3604 232.959 79.9004 231.089 82.5904 231.519H82.5804ZM446.33 287.369C449.01 287.769 450.87 290.289 450.45 292.989C450.05 295.679 447.53 297.519 444.82 297.099C442.13 296.699 440.27 294.189 440.69 291.469C441.09 288.779 443.63 286.919 446.32 287.359L446.33 287.369Z" fill="#DAB16F"/>
<path fill-rule="evenodd" clip-rule="evenodd" d="M80.1897 250.009C82.9297 250.159 85.0097 252.479 84.8697 255.199C84.7397 257.919 82.3897 260.019 79.6797 259.869C76.9497 259.729 74.8797 257.409 75.0097 254.679C75.1597 251.959 77.4697 249.859 80.1997 249.999L80.1897 250.009ZM447.72 268.759C450.44 268.919 452.54 271.229 452.4 273.969C452.25 276.689 449.92 278.769 447.21 278.629C444.48 278.479 442.41 276.169 442.54 273.449C442.68 270.719 445 268.629 447.73 268.759H447.72Z" fill="#DAB16F"/>
<path fill-rule="evenodd" clip-rule="evenodd" d="M79.6899 268.631C82.4099 268.501 84.7399 270.611 84.8699 273.321C85.0199 276.051 82.9099 278.361 80.1799 278.491C77.4599 278.621 75.1499 276.541 74.9999 273.801C74.8699 271.071 76.9599 268.761 79.6899 268.621V268.631ZM447.24 250.131C449.96 250.001 452.27 252.091 452.4 254.821C452.54 257.531 450.44 259.861 447.72 259.981C445 260.131 442.67 258.021 442.53 255.291C442.42 252.571 444.5 250.261 447.23 250.131H447.24ZM81.0699 287.231C83.7899 286.811 86.2799 288.661 86.6999 291.371C87.1199 294.051 85.2399 296.581 82.5599 297.001C79.8599 297.401 77.3499 295.551 76.9299 292.861C76.5299 290.141 78.3799 287.641 81.0699 287.231ZM444.87 231.631C447.55 231.231 450.08 233.071 450.5 235.771C450.91 238.461 449.05 240.981 446.36 241.411C443.65 241.811 441.14 239.941 440.73 237.261C440.31 234.561 442.15 232.031 444.87 231.631ZM84.3399 305.571C86.9599 304.891 89.6599 306.471 90.3399 309.131C91.0399 311.771 89.4499 314.471 86.7999 315.141C84.1599 315.821 81.4599 314.221 80.7799 311.581C80.0999 308.941 81.6999 306.241 84.3399 305.561V305.571ZM440.63 213.481C443.28 212.801 445.97 214.381 446.65 217.041C447.33 219.661 445.74 222.361 443.09 223.061C440.47 223.741 437.75 222.141 437.07 219.501C436.39 216.851 437.99 214.161 440.63 213.481ZM89.4399 323.501C91.9899 322.581 94.8199 323.871 95.7799 326.431C96.7199 328.981 95.3999 331.831 92.8499 332.771C90.2999 333.721 87.4599 332.411 86.5099 329.861C85.5599 327.301 86.8699 324.441 89.4399 323.501ZM434.59 195.831C437.14 194.891 439.98 196.201 440.93 198.761C441.87 201.331 440.56 204.171 438.02 205.091C435.45 206.061 432.62 204.751 431.65 202.191C430.73 199.641 432.04 196.771 434.59 195.831ZM96.2999 340.831C98.7399 339.631 101.7 340.661 102.9 343.101C104.1 345.541 103.1 348.521 100.64 349.701C98.1999 350.901 95.2399 349.891 94.0399 347.451C92.8399 344.991 93.8599 342.041 96.2999 340.831ZM426.78 178.911C429.22 177.731 432.18 178.741 433.38 181.191C434.58 183.631 433.56 186.591 431.12 187.791C428.68 188.991 425.7 187.981 424.5 185.531C423.3 183.091 424.32 180.131 426.78 178.911ZM104.9 357.381C107.21 355.941 110.25 356.641 111.71 358.971C113.15 361.281 112.42 364.321 110.11 365.781C107.81 367.221 104.74 366.491 103.32 364.201C101.88 361.891 102.58 358.831 104.91 357.391L104.9 357.381ZM417.29 162.851C419.61 161.431 422.63 162.131 424.1 164.461C425.54 166.771 424.81 169.811 422.48 171.271C420.2 172.711 417.14 171.981 415.7 169.681C414.26 167.351 414.95 164.311 417.28 162.851H417.29ZM115.12 372.971C117.27 371.291 120.38 371.691 122.04 373.851C123.71 376.011 123.3 379.101 121.15 380.791C119 382.451 115.9 382.051 114.25 379.891C112.57 377.741 112.97 374.651 115.12 372.981V372.971ZM406.25 147.861C408.4 146.181 411.5 146.581 413.17 148.741C414.83 150.921 414.43 154.011 412.28 155.681C410.13 157.341 407.01 156.961 405.36 154.771C403.7 152.621 404.08 149.531 406.25 147.861ZM126.88 387.451C128.85 385.561 131.97 385.631 133.85 387.621C135.73 389.601 135.66 392.721 133.67 394.591C131.69 396.461 128.56 396.401 126.68 394.391C124.8 392.441 124.88 389.321 126.87 387.441L126.88 387.451ZM393.73 134.031C395.71 132.151 398.83 132.221 400.7 134.211C402.58 136.201 402.51 139.301 400.52 141.181C398.55 143.061 395.41 142.991 393.53 141.001C391.65 139.031 391.73 135.911 393.72 134.031H393.73ZM140.03 400.641C141.81 398.571 144.93 398.331 146.98 400.121C149.07 401.881 149.28 405.021 147.52 407.071C145.74 409.141 142.62 409.371 140.55 407.591C138.48 405.831 138.24 402.691 140.03 400.631V400.641ZM379.89 121.541C381.67 119.491 384.79 119.241 386.84 121.021C388.93 122.801 389.14 125.921 387.37 127.991C385.59 130.041 382.49 130.291 380.4 128.491C378.34 126.731 378.1 123.611 379.88 121.531L379.89 121.541ZM154.45 412.461C156.02 410.211 159.09 409.681 161.32 411.211C163.55 412.781 164.1 415.871 162.55 418.101C160.98 420.351 157.91 420.881 155.68 419.331C153.43 417.761 152.88 414.691 154.45 412.461ZM364.85 110.531C366.42 108.281 369.49 107.751 371.74 109.281C373.97 110.851 374.5 113.941 372.95 116.171C371.38 118.401 368.31 118.951 366.08 117.401C363.85 115.851 363.28 112.761 364.85 110.531Z" fill="#DAB16F"/>
<path fill-rule="evenodd" clip-rule="evenodd" d="M170.001 422.731C171.321 420.361 174.321 419.501 176.711 420.821C179.101 422.151 179.951 425.171 178.621 427.531C177.311 429.911 174.311 430.781 171.911 429.461C169.521 428.131 168.681 425.141 170.001 422.731ZM348.791 101.091C350.101 98.7107 353.111 97.8507 355.501 99.1807C357.871 100.491 358.731 103.521 357.431 105.891C356.091 108.271 353.081 109.131 350.701 107.801C348.311 106.471 347.461 103.481 348.791 101.091Z" fill="#DAB16F"/>
<path fill-rule="evenodd" clip-rule="evenodd" d="M186.49 431.42C187.58 428.89 190.47 427.75 193 428.83C195.49 429.9 196.65 432.81 195.57 435.32C194.48 437.81 191.57 438.97 189.06 437.91C186.57 436.83 185.41 433.92 186.49 431.43V431.42ZM331.82 93.3103C332.9 90.8203 335.8 89.6603 338.32 90.7403C340.81 91.8103 341.98 94.7203 340.89 97.2303C339.81 99.7203 336.91 100.88 334.39 99.8203C331.88 98.7403 330.74 95.8303 331.82 93.3203V93.3103Z" fill="#DAB16F"/>
<path fill-rule="evenodd" clip-rule="evenodd" d="M203.78 438.359C204.59 435.779 207.37 434.319 209.99 435.139C212.58 435.949 214 438.729 213.19 441.329C212.36 443.929 209.61 445.369 207 444.549C204.41 443.719 202.96 440.939 203.78 438.349V438.359ZM314.17 87.3094C314.99 84.7094 317.76 83.2594 320.36 84.0894C322.96 84.8994 324.4 87.6794 323.6 90.2694C322.76 92.8894 320.01 94.3094 317.39 93.4994C314.8 92.6694 313.35 89.8894 314.17 87.3094Z" fill="#DAB16F"/>
<path fill-rule="evenodd" clip-rule="evenodd" d="M221.7 443.519C222.27 440.869 224.87 439.159 227.54 439.709C230.21 440.259 231.94 442.859 231.37 445.529C230.84 448.199 228.22 449.929 225.53 449.359C222.86 448.809 221.14 446.189 221.69 443.519H221.7ZM296.02 83.1086C296.58 80.4386 299.19 78.7286 301.86 79.2786C304.53 79.8386 306.28 82.4486 305.71 85.1186C305.16 87.7886 302.54 89.4986 299.86 88.9486C297.19 88.3986 295.48 85.7786 296.03 83.1186L296.02 83.1086Z" fill="#DAB16F"/>
<path fill-rule="evenodd" clip-rule="evenodd" d="M240.039 446.85C240.309 444.15 242.739 442.16 245.459 442.47C248.169 442.74 250.129 445.17 249.859 447.87C249.579 450.59 247.159 452.56 244.429 452.27C241.739 451.99 239.769 449.57 240.049 446.85H240.039ZM277.529 80.7601C277.809 78.0601 280.229 76.0701 282.949 76.3601C285.669 76.6501 287.639 79.0801 287.359 81.7801C287.079 84.4801 284.649 86.4701 281.929 86.1801C279.229 85.9101 277.249 83.4801 277.529 80.7601ZM202.939 387.35L191.079 408.76L182.949 404.12C178.919 401.84 177.929 398.82 179.989 395.09C181.449 392.49 183.549 391.63 186.319 392.5C185.019 391.48 184.279 390.36 184.129 389.15C183.939 387.95 184.329 386.47 185.289 384.72C187.379 380.97 190.579 380.29 194.899 382.76L202.939 387.34V387.35ZM191.469 397.48L188.559 395.83C187.799 395.41 187.069 395.29 186.359 395.54C185.649 395.75 185.049 396.29 184.579 397.13C184.179 397.89 184.049 398.67 184.229 399.48C184.439 400.29 184.889 400.92 185.669 401.36L188.449 402.93L191.479 397.5L191.469 397.48ZM196.649 388.12L193.919 386.57C192.059 385.51 190.589 385.99 189.449 388C188.339 390.02 188.749 391.61 190.709 392.71L193.279 394.21L196.639 388.13L196.649 388.12Z" fill="#DAB16F"/>
<path fill-rule="evenodd" clip-rule="evenodd" d="M173.959 385.921C171.339 389.151 169.049 390.941 167.009 391.291C164.989 391.661 162.869 390.891 160.589 389.011C158.389 387.181 157.239 385.241 157.149 383.161C157.039 381.091 158.259 378.441 160.849 375.181L161.999 373.791L163.179 372.321C165.849 369.021 168.199 367.261 170.249 367.081C172.289 366.871 174.339 367.631 176.379 369.331C178.769 371.291 179.919 373.361 179.869 375.481C179.839 377.621 178.659 380.091 176.399 382.921L175.039 384.601L173.969 385.921H173.959ZM171.049 381.211C173.169 378.571 174.469 376.651 174.969 375.411C175.439 374.161 175.129 373.111 174.079 372.221C173.039 371.361 171.979 371.301 170.879 372.061C169.749 372.821 168.129 374.521 165.979 377.181C163.759 379.901 162.449 381.871 162.069 383.081C161.629 384.261 161.939 385.301 162.959 386.151C163.979 386.981 165.029 387.041 166.129 386.331C167.249 385.611 168.879 383.901 171.059 381.201L171.049 381.211Z" fill="#DAB16F"/>
<path fill-rule="evenodd" clip-rule="evenodd" d="M165.791 360.558L142.921 371.458L138.551 366.328L152.611 345.078L156.101 349.188L152.881 353.868L157.441 359.258L162.511 356.728L165.781 360.558H165.791ZM153.931 360.948L150.741 357.178L144.451 366.038L153.931 360.948Z" fill="#DAB16F"/>
<path fill-rule="evenodd" clip-rule="evenodd" d="M149.201 339.83L128.311 352.59L123.521 344.42C122.691 342.99 122.391 341.56 122.661 340.12C122.921 338.66 124.071 337.34 126.091 336.11C129.021 334.3 131.491 334.61 133.501 337C132.871 335.48 132.681 334.2 132.981 333.22C133.291 332.22 134.231 331.23 135.841 330.23C138.831 328.42 140.611 327.09 141.241 326.27L143.791 330.63C143.551 331.1 143.051 331.62 142.251 332.15C141.481 332.68 140.811 333.1 140.291 333.4C138.401 334.48 137.231 335.4 136.711 336.22C136.181 337.01 136.341 338.14 137.161 339.55L137.861 340.73L146.561 335.39L149.181 339.84L149.201 339.83ZM134.661 342.69L133.501 340.72C133.061 339.96 132.431 339.59 131.661 339.57C130.871 339.54 130.011 339.8 129.151 340.33C127.371 341.43 126.901 342.76 127.811 344.28L128.941 346.2L134.671 342.69H134.661Z" fill="#DAB16F"/>
<path fill-rule="evenodd" clip-rule="evenodd" d="M138.281 319.97L115.561 329.06L112.531 321.02C111.481 318.27 111.581 316.01 112.821 314.23C114.091 312.45 116.981 310.67 121.521 308.85C123.451 308.07 125.061 307.52 126.341 307.21C127.601 306.9 128.831 306.89 130.011 307.16C130.971 307.27 131.941 307.72 132.921 308.48C133.891 309.25 134.671 310.41 135.271 311.95L138.281 319.96V319.97ZM132.961 316.57L132.071 314.19C131.601 312.93 130.781 312.25 129.601 312.12C128.421 311.99 125.981 312.65 122.241 314.17C119.311 315.33 117.471 316.37 116.761 317.27C116.011 318.18 115.881 319.23 116.341 320.37L117.261 322.85L132.971 316.56L132.961 316.57ZM114.441 288.07C110.301 288.59 107.411 288.28 105.721 287.12C104.041 285.96 103.031 283.93 102.741 281C102.431 278.14 103.001 275.94 104.371 274.37C105.751 272.8 108.501 271.77 112.621 271.25L114.401 271.02L116.271 270.79C120.491 270.26 123.401 270.63 125.001 271.92C126.571 273.2 127.491 275.16 127.781 277.81C128.091 280.89 127.471 283.18 125.961 284.69C124.411 286.18 121.851 287.15 118.261 287.58L116.111 287.87L114.431 288.06L114.441 288.07ZM115.671 282.65C119.021 282.23 121.301 281.76 122.511 281.21C123.721 280.63 124.261 279.67 124.111 278.32C123.981 276.95 123.231 276.18 121.941 275.94C120.621 275.7 118.271 275.79 114.871 276.21C111.381 276.65 109.071 277.15 107.951 277.75C106.791 278.32 106.281 279.26 106.411 280.58C106.541 281.89 107.271 282.67 108.551 282.91C109.841 283.18 112.201 283.09 115.671 282.65ZM126.671 262.11L102.221 261.32L102.901 248.49L106.671 248.62L106.251 256.3L112.481 256.51L112.881 249.13L116.631 249.24L116.251 256.63L126.951 256.96L126.681 262.1L126.671 262.11ZM125.201 220.01L126.631 215.14C129.641 215.96 131.641 217.11 132.641 218.59C133.631 220.06 133.751 222.03 133.031 224.48C132.221 227.26 130.861 229.12 128.971 230.06C127.081 231 124.331 230.98 120.791 230.01L118.451 229.38L116.461 228.83C112.791 227.83 110.341 226.5 109.151 224.85C107.951 223.2 107.791 220.89 108.661 217.94C109.311 215.71 110.411 214.19 111.931 213.35C113.451 212.49 115.701 212.45 118.621 213.25L117.201 218.1C115.811 217.71 114.691 217.6 113.821 217.69C112.961 217.8 112.431 218.24 112.221 218.97L112.161 219.17C111.851 220.22 112.221 221.14 113.251 221.88C114.301 222.61 116.551 223.43 119.981 224.37L120.981 224.63C123.811 225.41 125.831 225.73 127.061 225.6C128.261 225.45 129.041 224.84 129.391 223.77L129.451 223.55C129.871 222.06 128.461 220.88 125.211 220.01H125.201ZM124.541 205.24C120.791 203.51 118.511 201.68 117.661 199.82C116.871 197.93 117.101 195.68 118.391 193.04C119.671 190.49 121.301 188.9 123.271 188.3C125.291 187.7 128.171 188.28 131.931 190.01L133.581 190.79L135.261 191.58C139.111 193.39 141.381 195.23 142.051 197.19C142.711 199.13 142.471 201.28 141.311 203.67C139.921 206.44 138.191 208.05 136.121 208.51C134.021 208.95 131.331 208.42 128.071 206.88L126.091 205.97L124.541 205.23V205.24ZM128.451 201.33C131.511 202.76 133.711 203.56 135.021 203.76C136.341 203.9 137.311 203.37 137.911 202.14C138.521 200.92 138.311 199.87 137.331 198.97C136.331 198.07 134.291 196.9 131.201 195.46C128.011 193.96 125.781 193.18 124.541 193.05C123.271 192.92 122.321 193.45 121.741 194.65C121.161 195.83 121.341 196.88 122.291 197.77C123.241 198.66 125.321 199.85 128.451 201.33Z" fill="#DAB16F"/>
<path fill-rule="evenodd" clip-rule="evenodd" d="M128.561 175.5L132.691 169.95L150.351 174.4L136.661 164.61L139.541 160.75L159.451 175L155.411 180.4L136.871 175.5L151.331 185.86L148.451 189.73L128.561 175.5Z" fill="#DAB16F"/>
<path fill-rule="evenodd" clip-rule="evenodd" d="M146.551 152.919L158.791 141.359L161.631 144.299L157.381 148.289L171.611 162.899L167.881 166.429L153.651 151.839L149.411 155.849L146.551 152.919Z" fill="#DAB16F"/>
<path fill-rule="evenodd" clip-rule="evenodd" d="M180.811 155.041L166.801 134.971L174.641 129.651C176.001 128.711 177.401 128.341 178.861 128.521C180.351 128.701 181.741 129.751 183.081 131.691C185.051 134.521 184.901 137.011 182.631 139.181C184.131 138.431 185.361 138.181 186.381 138.421C187.381 138.631 188.431 139.531 189.521 141.091C191.511 143.951 192.951 145.671 193.821 146.221L189.621 149.071C189.121 148.881 188.581 148.391 188.021 147.651C187.441 146.891 186.971 146.261 186.641 145.761C185.461 143.951 184.471 142.801 183.611 142.341C182.781 141.891 181.701 142.111 180.311 143.041L179.201 143.801L185.041 152.181L180.801 155.061L180.811 155.041ZM177.061 140.701L178.921 139.411C179.671 138.921 180.021 138.301 179.971 137.491C179.941 136.701 179.641 135.871 179.061 135.011C177.861 133.301 176.521 132.941 175.051 133.931L173.211 135.191L177.061 140.711V140.701Z" fill="#DAB16F"/>
<path fill-rule="evenodd" clip-rule="evenodd" d="M193.44 130.46C191.69 126.71 191.08 123.84 191.65 121.87C192.23 119.88 193.85 118.28 196.53 117.07C199.13 115.89 201.39 115.71 203.29 116.52C205.2 117.31 207.04 119.59 208.81 123.36L209.57 125L210.36 126.7C212.16 130.55 212.69 133.46 211.98 135.4C211.27 137.31 209.7 138.83 207.28 139.93C204.46 141.21 202.1 141.35 200.23 140.38C198.32 139.39 196.62 137.29 195.09 134.01L194.17 132.02L193.45 130.47L193.44 130.46ZM198.94 129.91C200.35 132.97 201.54 134.99 202.42 135.97C203.34 136.94 204.41 137.13 205.67 136.58C206.9 136 207.42 135.06 207.22 133.73C207.04 132.41 206.23 130.17 204.8 127.08C203.31 123.91 202.11 121.86 201.21 120.97C200.32 120.06 199.27 119.9 198.07 120.45C196.87 120.97 196.36 121.92 196.5 123.23C196.66 124.5 197.47 126.76 198.94 129.89V129.91ZM215.16 110.23L220.11 108.85L225.69 128.47L233.11 126.38L234.24 130.33L221.85 133.77L215.15 110.22L215.16 110.23ZM250.92 127.86L249.59 103.41L262.43 102.75L262.62 106.5L254.92 106.92L255.26 113.13L262.65 112.74L262.86 116.49L255.45 116.88L256.03 127.57L250.9 127.86H250.92ZM271.33 113.37C271.78 109.26 272.77 106.48 274.29 105.08C275.81 103.65 278.01 103.14 280.94 103.43C283.79 103.74 285.82 104.7 287.04 106.39C288.25 108.04 288.64 110.97 288.2 115.08L287.99 116.86L287.78 118.74C287.33 122.96 286.28 125.73 284.66 127.04C283.04 128.31 280.91 128.82 278.27 128.54C275.18 128.2 273.09 127.15 271.99 125.35C270.86 123.54 270.52 120.84 270.9 117.25L271.13 115.1L271.32 113.39L271.33 113.37ZM276.35 115.7C275.98 119.05 275.91 121.36 276.17 122.67C276.44 123.96 277.27 124.69 278.65 124.85C279.99 124.98 280.91 124.43 281.45 123.18C281.98 121.95 282.44 119.64 282.81 116.24C283.2 112.75 283.23 110.38 282.94 109.17C282.65 107.92 281.84 107.23 280.51 107.08C279.2 106.95 278.28 107.49 277.73 108.7C277.19 109.88 276.73 112.23 276.35 115.69V115.7ZM293.83 130.5L300.66 106.97L309.78 109.57C311.35 110.01 312.56 110.85 313.32 112.07C314.11 113.31 314.2 115.06 313.53 117.32C312.58 120.63 310.52 122.11 307.4 121.75C308.92 122.41 309.91 123.2 310.36 124.13C310.83 125.05 310.78 126.41 310.25 128.24C309.28 131.59 308.86 133.77 308.96 134.76L304.11 133.4C303.95 132.88 303.97 132.17 304.18 131.26C304.4 130.32 304.62 129.58 304.81 128.99C305.49 126.95 305.72 125.46 305.55 124.53C305.41 123.6 304.52 122.92 302.93 122.44L301.64 122.09L298.77 131.89L293.84 130.5H293.83ZM302.68 118.45L304.86 119.08C305.7 119.32 306.41 119.18 307.03 118.64C307.64 118.11 308.08 117.35 308.37 116.36C308.95 114.34 308.38 113.09 306.67 112.59L304.55 111.99L302.68 118.44V118.45ZM338.92 139.9L343.3 142.42C341.73 145.11 340.08 146.74 338.37 147.35C336.67 147.93 334.72 147.61 332.5 146.33C329.99 144.87 328.54 143.12 328.12 141.1C327.68 139.06 328.43 136.44 330.27 133.29L331.52 131.19L332.57 129.41C334.5 126.13 336.45 124.12 338.36 123.36C340.32 122.62 342.61 123.01 345.27 124.54C347.27 125.7 348.49 127.11 348.92 128.76C349.36 130.42 348.79 132.57 347.26 135.2L342.89 132.67C343.62 131.44 344.04 130.39 344.14 129.57C344.28 128.7 343.99 128.08 343.33 127.71L343.16 127.6C342.2 127.05 341.23 127.2 340.23 128C339.24 128.83 337.84 130.76 336.01 133.85L335.51 134.71C334.01 137.25 333.16 139.12 332.99 140.31C332.83 141.49 333.2 142.4 334.17 142.98L334.36 143.11C335.7 143.87 337.24 142.8 338.94 139.89L338.92 139.9Z" fill="#DAB16F"/>
<path fill-rule="evenodd" clip-rule="evenodd" d="M344.529 153.491L360.309 134.781L367.639 140.791C368.899 141.831 369.659 143.071 369.889 144.511C370.129 145.931 369.489 147.571 367.949 149.361C365.739 152.001 363.259 152.531 360.509 150.951C361.659 152.161 362.259 153.291 362.289 154.301C362.339 155.341 361.759 156.561 360.539 158.001C358.289 160.691 356.999 162.501 356.689 163.471L352.789 160.271C352.839 159.731 353.139 159.091 353.729 158.361C354.309 157.581 354.799 157.001 355.219 156.531C356.659 154.931 357.479 153.651 357.709 152.741C357.929 151.841 357.429 150.851 356.139 149.821L355.089 148.941L348.509 156.741L344.529 153.491ZM357.529 146.051L359.279 147.491C359.979 148.071 360.689 148.221 361.459 147.991C362.239 147.731 362.949 147.221 363.609 146.421C364.949 144.821 364.949 143.461 363.579 142.351L361.849 140.931L357.529 146.061V146.051Z" fill="#DAB16F"/>
<path fill-rule="evenodd" clip-rule="evenodd" d="M379.69 152.031L383.2 155.751L365.09 172.231L361.58 168.481L379.69 152.031Z" fill="#DAB16F"/>
<path fill-rule="evenodd" clip-rule="evenodd" d="M383.459 181.879L386.419 185.989C383.859 187.749 381.679 188.559 379.869 188.399C378.059 188.239 376.409 187.139 374.919 185.049C373.219 182.699 372.589 180.519 373.059 178.499C373.509 176.479 375.269 174.409 378.279 172.309L380.289 170.929L381.989 169.749C385.109 167.579 387.729 166.549 389.789 166.679C391.879 166.809 393.829 168.119 395.629 170.589C396.969 172.469 397.499 174.259 397.219 175.949C396.929 177.629 395.519 179.349 393.029 181.089L390.049 176.979C391.259 176.149 392.059 175.409 392.509 174.669C392.979 173.969 392.999 173.289 392.539 172.669L392.429 172.499C391.769 171.599 390.829 171.319 389.579 171.659C388.319 171.979 386.229 173.179 383.289 175.199L382.479 175.769C380.039 177.469 378.499 178.809 377.839 179.799C377.189 180.799 377.189 181.779 377.809 182.709L377.939 182.889C378.839 184.149 380.689 183.809 383.469 181.889L383.459 181.879Z" fill="#DAB16F"/>
<path fill-rule="evenodd" clip-rule="evenodd" d="M397.769 195.152L410.079 196.092L412.559 201.122L399.619 199.712L390.429 211.552L387.859 206.372L396.719 195.632L385.229 201.052L382.939 196.462L405.099 186.012L407.379 190.642L397.769 195.152Z" fill="#DAB16F"/>
<path fill-rule="evenodd" clip-rule="evenodd" d="M392.629 217.55L416.159 210.82L420.109 223.61L416.489 224.64L414.049 216.76L408.319 218.39L410.569 225.64L406.929 226.69L404.699 219.43L397.779 221.39L400.269 229.51L396.629 230.55L392.639 217.54L392.629 217.55ZM422.339 233.17L424.719 249.84L420.639 250.34L419.809 244.55L399.569 246.99L398.849 241.91L419.089 239.47L418.249 233.66L422.329 233.16L422.339 233.17ZM424.959 272.07L424.629 277.21L400.239 275.12L400.569 269.98L424.959 272.07ZM423.569 288.52L422.179 295.28L404.409 298.01L420.809 301.79L419.839 306.5L395.989 301L397.349 294.36L416.099 291.73L398.759 287.72L399.729 282.98L423.579 288.51L423.569 288.52ZM411.389 329.6L409.239 334.27L387.189 323.58L389.359 318.92L411.389 329.6Z" fill="#DAB16F"/>
<path fill-rule="evenodd" clip-rule="evenodd" d="M404.15 344.442L400.4 350.232L382.8 346.422L396.77 355.832L394.17 359.872L373.84 346.202L377.51 340.522L395.98 344.752L381.22 334.802L383.85 330.762L404.15 344.442Z" fill="#DAB16F"/>
<path fill-rule="evenodd" clip-rule="evenodd" d="M369.021 352.27L386.541 369.36L380.641 375.62C378.621 377.75 376.561 378.61 374.461 378.23C372.361 377.84 369.561 375.95 366.071 372.54C364.581 371.08 363.421 369.81 362.611 368.75C361.821 367.73 361.301 366.6 361.041 365.39C360.751 364.45 360.731 363.38 361.031 362.12C361.321 360.89 362.021 359.68 363.161 358.48L369.031 352.27H369.021ZM368.191 358.63L366.441 360.49C365.501 361.44 365.261 362.49 365.611 363.64C365.981 364.79 367.621 366.76 370.501 369.57C372.761 371.77 374.441 373.02 375.561 373.29C376.641 373.56 377.651 373.26 378.501 372.35L380.311 370.44L368.181 358.62L368.191 358.63Z" fill="#DAB16F"/>
<path fill-rule="evenodd" clip-rule="evenodd" d="M366.93 388.452L362.94 391.662L347.84 372.402L351.84 369.172L366.93 388.452Z" fill="#DAB16F"/>
<path fill-rule="evenodd" clip-rule="evenodd" d="M342.799 376.608L349.169 401.308L343.399 404.768L325.359 387.028L329.989 384.278L333.939 388.308L339.989 384.688L338.469 379.188L342.799 376.618V376.608ZM340.989 388.478L336.769 391.008L344.209 398.838L340.989 388.488V388.478ZM263.699 163.078L293.279 223.028L359.479 232.648L311.569 279.318L322.879 345.228L263.699 314.128L204.509 345.228L215.819 279.318L167.939 232.648L234.119 223.028L263.719 163.078H263.699Z" fill="#DAB16F"/>
<path fill-rule="evenodd" clip-rule="evenodd" d="M278.77 398.488C275.73 396.498 271.73 396.258 268.48 397.888C266.48 398.908 264.94 400.608 263.69 402.438C262.44 400.608 260.91 398.908 258.9 397.888C255.65 396.258 251.65 396.498 248.61 398.488C245.76 400.398 243.98 403.668 243.98 407.098C243.98 409.018 244.55 410.898 245.42 412.598C246.16 414.028 247.17 415.198 248.24 416.358L263.68 433.368L279.12 416.358C280.19 415.208 281.19 414.028 281.94 412.598C282.81 410.898 283.36 409.028 283.36 407.098C283.36 403.668 281.6 400.398 278.75 398.488H278.77Z" fill="#DAB16F"/>
</g>
<defs>
<clipPath id="clip0_1774_1868">
<rect width="527.39" height="527.38" fill="white"/>
</clipPath>
</defs>
</svg>
