<svg width="119" height="129" fill="none" xmlns="http://www.w3.org/2000/svg"><path d="m72.754.001-.002.004V.002c-1.57 1.16-3.932 2.112-6.785 2.732.027-.005.055-.01.082-.017-2.014.445-4.279.724-6.682.79-2.404-.066-4.668-.345-6.682-.79.027.005.054.01.081.017-2.85-.622-5.214-1.573-6.783-2.733v.003L45.98 0h-2.082s4.363 5.184 15.469 5.522c11.105-.337 15.47-5.52 15.47-5.52h-2.083Z" fill="#3AA1DB"/><path d="M94.504 113.217c-.513-2.315-4.504-33.931-4.402-39.93.026-1.5.72-22.63.856-24.528.012-.17.014-.083-.175-4.587-.046-1.121.347-10.444.656-14.32C92.84 12.277 78.542 12.06 74.996 10.79c0 0-5.526-1.18-8.223-6.36-2.032.577-4.488 1-7.41 1.09-2.924-.09-5.38-.512-7.412-1.09-2.697 5.178-8.222 6.36-8.222 6.36-3.547 1.269-17.845 1.485-16.443 19.062.308 3.877.701 13.2.655 14.32-.19 4.504-.188 4.417-.175 4.588.138 1.896.83 23.026.856 24.527.102 5.999-3.889 37.616-4.402 39.93-.513 2.316 0 14.49 0 14.49 2.742.607 11.554-.05 13.605.128 4.853.424 16.736.24 21.537.156 4.8.084 16.684.269 21.537-.156 2.05-.177 10.864.479 13.605-.128 0 0 .513-12.176 0-14.49Z" fill="#3AA1DB"/><path d="M39.365 30.93c7.587 2.682 16.052 3.734 24.041 2.556 8.855-1.307 17.129-4.894 25.116-8.85-2.274-9.68-12.013-9.98-14.76-10.962 0 0-5.09-1.088-7.575-5.86-1.873.532-4.135.923-6.828 1.005-2.692-.082-4.955-.473-6.827-1.005-2.485 4.772-7.576 5.86-7.576 5.86-2.848 1.018-13.216 1.305-14.98 12.08 2.698 2.36 6.015 3.984 9.39 5.177v-.001Z" fill="#3AA1DB"/><path d="M40.042 30.59c7.332 2.591 15.51 3.608 23.23 2.47 8.558-1.263 16.552-4.73 24.27-8.552-2.198-9.354-11.608-9.645-14.262-10.594 0 0-4.919-1.05-7.32-5.662-1.81.515-3.996.891-6.598.971-2.602-.079-4.79-.456-6.599-.971-2.401 4.611-7.32 5.662-7.32 5.662-2.753.985-12.77 1.261-14.474 11.673 2.607 2.28 5.812 3.85 9.072 5.003h.001Z" fill="#3AA1DB"/><path d="M40.71 30.256c7.075 2.502 14.97 3.483 22.42 2.383 8.258-1.219 15.975-4.564 23.424-8.252-2.12-9.029-11.204-9.308-13.765-10.225 0 0-4.747-1.014-7.065-5.465-1.747.497-3.857.861-6.368.937-2.511-.077-4.621-.44-6.368-.937-2.318 4.45-7.065 5.465-7.065 5.465-2.656.95-12.325 1.217-13.97 11.266 2.516 2.2 5.61 3.715 8.756 4.828Z" fill="#3AA1DB"/><path d="M41.384 29.916c6.82 2.412 14.43 3.357 21.61 2.297 7.96-1.175 15.398-4.4 22.577-7.954-2.044-8.702-10.798-8.972-13.266-9.855 0 0-4.577-.978-6.81-5.267-1.684.478-3.718.83-6.138.903-2.42-.074-4.454-.425-6.137-.903-2.234 4.29-6.81 5.267-6.81 5.267-2.56.916-11.88 1.173-13.465 10.859 2.425 2.122 5.407 3.582 8.44 4.653Z" fill="#3AA1DB"/><path d="M42.043 29.576c6.565 2.32 13.889 3.231 20.8 2.21 7.663-1.13 14.82-4.234 21.732-7.656-1.967-8.376-10.394-8.636-12.77-9.486 0 0-4.405-.94-6.554-5.07-1.62.46-3.577.799-5.907.87-2.33-.071-4.288-.41-5.907-.87-2.15 4.13-6.555 5.07-6.555 5.07-2.464.881-11.434 1.13-12.96 10.451 2.334 2.043 5.204 3.447 8.123 4.48h-.002Z" fill="#3AA1DB"/><path d="M42.714 29.236c6.309 2.23 13.347 3.105 19.99 2.126 7.363-1.087 14.242-4.07 20.884-7.358-1.891-8.05-9.989-8.3-12.273-9.116 0 0-4.233-.904-6.299-4.872-1.557.442-3.438.767-5.678.835-2.238-.068-4.12-.393-5.677-.835-2.066 3.968-6.3 4.872-6.3 4.872-2.367.847-10.989 1.085-12.455 10.045 2.243 1.962 5.002 3.313 7.807 4.304Z" fill="#3AA1DB"/><path d="M43.389 28.9c6.053 2.14 12.806 2.979 19.18 2.039 7.065-1.042 13.666-3.905 20.038-7.06-1.814-7.723-9.585-7.963-11.775-8.747 0 0-4.062-.867-6.044-4.675-1.494.425-3.3.736-5.447.802-2.149-.066-3.954-.377-5.448-.802-1.982 3.806-6.044 4.675-6.044 4.675-2.272.813-10.543 1.041-11.95 9.638 2.152 1.884 4.798 3.178 7.49 4.13Z" fill="#3AA1DB"/><path d="M44.056 28.562c5.797 2.05 12.266 2.854 18.37 1.953 6.766-1 13.088-3.74 19.19-6.762-1.737-7.396-9.178-7.626-11.277-8.377 0 0-3.89-.83-5.788-4.478-1.431.407-3.16.705-5.217.769-2.057-.063-3.787-.362-5.217-.769-1.898 3.646-5.789 4.478-5.789 4.478-2.176.779-10.098.997-11.445 9.23 2.061 1.804 4.596 3.044 7.174 3.956h-.001Z" fill="#3AA1DB"/><path d="M44.72 28.223c5.541 1.959 11.724 2.727 17.56 1.866 6.467-.955 12.511-3.574 18.345-6.463-1.66-7.072-8.774-7.29-10.78-8.008 0 0-3.719-.794-5.535-4.28-1.367.388-3.02.674-4.987.734-1.967-.06-3.62-.346-4.988-.734-1.815 3.485-5.534 4.28-5.534 4.28-2.08.744-9.653.954-10.942 8.823 1.97 1.724 4.394 2.911 6.858 3.782h.002Z" fill="#3AA1DB"/><path d="M45.393 27.886c5.287 1.869 11.184 2.602 16.75 1.78 6.17-.91 11.935-3.41 17.5-6.166-1.584-6.744-8.37-6.953-10.283-7.638 0 0-3.547-.759-5.279-4.083-1.304.371-2.88.643-4.757.7-1.876-.057-3.452-.329-4.757-.7-1.731 3.324-5.28 4.083-5.28 4.083-1.983.71-9.207.91-10.435 8.416 1.88 1.645 4.19 2.776 6.541 3.607v.001Z" fill="#3AA1DB"/><path d="M46.061 27.547c5.032 1.779 10.643 2.477 15.94 1.694 5.871-.866 11.358-3.245 16.653-5.867-1.507-6.418-7.965-6.616-9.785-7.268 0 0-3.375-.722-5.024-3.885-1.24.352-2.741.611-4.527.665-1.785-.054-3.286-.313-4.527-.665-1.647 3.163-5.023 3.885-5.023 3.885-1.889.675-8.763.865-9.932 8.01 1.788 1.565 3.988 2.642 6.224 3.433l.001-.002Z" fill="#3AA1DB"/><path d="M24.205 113.316a2.46 2.46 0 0 0-.017.101l.012-.067.005-.034ZM24.222 113.254c.008-.061.018-.115.028-.172a6.005 6.005 0 0 0-.041.235c-.003.011-.004.023-.006.034.007-.034.012-.067.019-.097ZM24.216 113.217a8.335 8.335 0 0 1 .051-.309v.005c-.01.051-.018.113-.028.169-.01.057-.02.111-.028.171l.007-.036h-.002ZM24.055 122.191l.005.265-.005-.265ZM24.042 122.087c0-.054-.002-.107-.003-.161l.005.239v-.078h-.002ZM28.555 70.95l.006.24.006.226a97.381 97.381 0 0 1-.007-.272l-.005-.195ZM24.242 113.117c.018-.132.038-.259.058-.385 0 .009-.003.02-.004.028-.009.047-.016.1-.024.148-.015.093-.031.184-.045.283l.015-.074ZM24.04 121.657c0 .07.002.138.003.207a14.735 14.735 0 0 0-.004-.208v.001ZM28.555 71.143a96.794 96.794 0 0 1 .008.264l-.007-.264h-.001ZM25.401 104.773l-.006.053-.064.501-.021.164-.047.366-.039.301-.035.273-.04.313-.035.267-.042.325c-.01.085-.023.17-.034.254l-.037.285-.034.262-.035.262-.04.304-.023.166-.055.404a494.86 494.86 0 0 1-.174 1.26c.98-6.955 3.384-26.84 3.868-34.564-.389 6.163-1.976 19.898-3.106 28.804Z" fill="#133F7E"/><path d="M24.25 113.033c.022-.164.046-.327.073-.488l-.01.062c-.008.04-.013.084-.02.125-.02.125-.041.252-.059.384l.017-.083h-.001ZM28.579 71.717l-.009-.309c.019.676.026 1.312.025 1.879 0 .374-.005.716-.012 1.016.02-.756.022-1.653-.004-2.586ZM28.57 74.683c-.007.214-.018.445-.032.692 0 .013 0 .025-.002.038l-.014.247-.014.243-.005.066c-.483 7.724-2.886 27.608-3.867 34.564l-.018.134-.022.153-.041.286c.962-6.636 3.7-29.205 4.005-36.165l.01-.26v.002ZM24.274 112.947c.027-.198.057-.4.091-.605-.006.039-.013.08-.02.114l-.013.09c-.027.162-.051.324-.074.487l.016-.087v.001ZM28.352 64.83c-.037-1.13-.077-2.307-.118-3.484l.118 3.483Z" fill="#133F7E"/><path d="M24.289 112.85c.031-.223.065-.454.105-.699.765-4.771 3.772-29.217 4.153-36.936.047-.947.066-2.077.038-3.185a1915.53 1915.53 0 0 0-.075-2.47c.017.514.03.98.044 1.387l.005.195.008.264.008.309c.025.933.023 1.83.005 2.586-.001.064-.003.126-.006.188l-.005.165v.026l-.01.258c-.305 6.96-3.042 29.53-4.005 36.166a.04.04 0 0 1-.002.011l-.035.24-.023.153-.012.076c-.041.279-.08.52-.112.718l-.005.038c-.034.205-.064.406-.092.605l.018-.097-.002.002ZM27.837 46.745l.024-.563c-.016.069-.034.13-.049.183-.004.137-.009.254-.01.357-.014.45-.015.606-.01.713l.016-.44.031-.25h-.002ZM27.907 45.944s.004.005.005.009l.005-.062-.01.053ZM25.798 101.643l-.071.57.071-.57ZM25.588 103.389l-.096.754.096-.754Z" fill="#133F7E"/><path d="M24.344 112.537c.225-1.396.647-4.486 1.142-8.361-.416 3.262-.78 5.953-1.015 7.52l-.127.841ZM27.209 89.787l-.115 1.023.115-1.023ZM27.766 48.512ZM27.772 48.121ZM27.79 49.078c-.002.096 0 .153.003.222.006.088.011.203.018.332v-.114a49.64 49.64 0 0 0-.021-.44ZM27.798 49.522l-.001.113c0 .074.001.139.005.21.006.095.011.212.017.337v-.21l-.021-.45ZM27.829 49.969c0 .076-.002.145 0 .21 0 .068.003.134.006.203.006.108.011.232.016.364-.002-.104-.003-.21-.002-.326a91.34 91.34 0 0 0-.02-.451ZM28.432 67.4l-.017-.537-.002-.075-.012-.354-.014-.445-.035-1.044-.003-.112c-.037-1.128-.078-2.308-.118-3.484 0-.04-.003-.08-.004-.122l-.025-.727-.04-1.132-.01-.273-.012-.385-.001-.036c-.086-2.467-.17-4.74-.233-6.299a3094.127 3094.127 0 0 1 .548 15.693l-.02-.636v-.029l-.002-.002ZM27.853 50.421c0 .117 0 .222.002.326 0 .058.003.117.005.177l.019.42a20.947 20.947 0 0 1-.008-.46l-.02-.464.002.001Z" fill="#133F7E"/><path d="M27.86 50.883a12.439 12.439 0 0 0 .011.58l.019.43v.003c-.007-.187-.01-.37-.012-.561l-.019-.452ZM27.92 52.547c-.009-.256-.016-.502-.02-.758l-.017-.451c.002.193.005.374.012.56l.003.108.015.365a1222.93 1222.93 0 0 1 .008.175v.001Z" fill="#133F7E"/><path d="M24.414 112.001c.8-5.121 3.686-28.542 4.117-36.508a41.37 41.37 0 0 0 .058-3.147c-.069-2.519-.44-13.794-.651-19.258-.011-.29-.019-.567-.025-.849l-.018-.45c.005.256.011.5.021.758a1311.438 1311.438 0 0 1 .226 6.161l.013.385.01.273.039 1.132.025.727.004.122.118 3.484c0 .038.002.075.003.112l.035 1.043.014.446.012.354.002.075.017.538v.029l.021.635c.057 1.74.1 3.16.123 3.967a43.912 43.912 0 0 1-.038 3.185c-.38 7.72-3.388 32.165-4.153 36.936a30.445 30.445 0 0 0 .024-.152l.003.002ZM27.79 46.723c.001-.04.002-.084.005-.13l-.006.006v.124h.001ZM27.86 46.18l.011-.297-.012.298Z" fill="#133F7E"/><path d="M28.6 72.345a41.383 41.383 0 0 1-.057 3.147c-.432 7.965-3.317 31.387-4.117 36.508-.043.271-.08.519-.113.753l.015-.091.123-.814c.836-5.473 3.6-27.868 4.08-36.08.067-1.123.099-2.207.078-3.11-.052-2.028-.413-13.069-.638-19.031-.012-.32-.021-.629-.03-.938l-.018-.453c.007.283.015.56.025.85.213 5.464.583 16.739.651 19.258h.001Z" fill="#133F7E"/><path d="M28.602 72.66c.02.902-.012 1.986-.078 3.108-.48 8.213-3.244 30.609-4.08 36.081l-.124.814.021-.125.127-.841c.235-1.567.599-4.258 1.015-7.52l.004-.034c.032-.248.065-.499.096-.754l.023-.18.085-.669.04-.323a220.364 220.364 0 0 0 .189-1.51l.074-.595.012-.093.188-1.537.049-.403c.014-.116.028-.231.04-.347l.052-.422.036-.3.065-.544.025-.21.09-.753.02-.177.07-.593c.01-.094.021-.189.033-.283l.055-.471a33.9 33.9 0 0 0 .038-.331l.045-.381.188-1.638c.005-.053.012-.105.018-.157l.068-.592.007-.07.116-1.023.012-.102.108-.984.003-.035c.548-4.986 1.001-9.619 1.185-12.624.078-1.21.114-2.27.098-3.07-.035-1.536-.386-12.344-.625-18.804l-.035-1.019-.017-.46c.008.308.018.618.03.938.226 5.962.586 17.003.638 19.032h-.004ZM27.835 46.744c-.01.092-.02.175-.032.25l-.016.44c-.017.507-.015.592-.01.685l.057-1.375Z" fill="#133F7E"/><path d="M28.602 72.974c.017.798-.019 1.86-.097 3.07-.184 3.004-.637 7.637-1.185 12.624.752-6.846 1.331-13.049 1.292-15.38-.02-1.127-.415-13.33-.669-20.138.01.332.022.67.035 1.019.239 6.46.59 17.269.624 18.805Z" fill="#133F7E"/><path d="M25.47 116.822c.608-2.253.978-4.568 1.264-6.88 1.09-8.832 3.151-27.078 3.144-27.548-.085-6.85 1.122-13.638 1.1-20.487-.012-3.391-.521-6.642-1.032-9.982-.184-1.198-.495-2.345-.846-3.478a22.735 22.735 0 0 0-1.192-2.503l-.04-.075v.019l-.012.296-.024.563a310.499 310.499 0 0 0-.063 1.553v.013l-.006.197v.012l-.001.063v.127c0 .017.002.032.003.05a24.084 24.084 0 0 1 .041.76l.02.448c.008.14.014.291.02.451l.02.465.018.452.018.451.017.45.018.453c.005.151.01.303.017.46.254 6.806.65 19.01.67 20.137.04 2.332-.54 8.533-1.293 15.38 0 .012-.002.023-.003.035l-.108.984-.012.102c-.038.34-.076.68-.116 1.023l-.007.07-.068.591c-.005.053-.012.105-.018.158a840.26 840.26 0 0 1-.188 1.637c-.014.128-.03.254-.045.381l-.038.332a329.79 329.79 0 0 1-.089.754l-.07.593-.02.177-.09.752-.024.21-.065.545-.036.3-.051.422-.042.346-.048.404c-.063.518-.125 1.031-.188 1.536l-.012.094-.074.595-.002.016-.116.923-.071.571-.04.323-.085.669-.023.18-.096.754c0 .011-.003.023-.004.033-.494 3.876-.917 6.966-1.142 8.362l-.02.125-.016.091-.016.098-.018.097-.016.087-.016.083-.015.075c-.003.007-.004.018-.006.026l-.006.036-.019.097c-.004.023-.009.044-.012.067l-.008.054a5.595 5.595 0 0 0-.033.241v.01c-.01.084-.02.175-.028.27l-.007.075c-.009.099-.017.203-.025.312l-.001.024c-.008.105-.013.215-.02.327 0 .029-.003.059-.004.088a34.08 34.08 0 0 0-.017.374l-.001.038-.013.374c0 .033-.003.064-.004.096l-.01.425v.055c-.004.135-.006.272-.008.411l-.001.096-.006.474v.049l-.002.45v.658c0 .158 0 .318.002.48v.085l.005.531v.047l.005.501v.081l.008.539v.012s0-.002.002-.003c.716-1.139 1.114-2.515 1.455-3.775h.001ZM94.523 113.316c.007.033.012.066.018.101-.004-.024-.009-.044-.012-.067-.002-.012-.003-.023-.006-.034ZM94.52 113.252c-.008-.061-.018-.115-.028-.172.014.072.028.151.041.235.003.011.004.023.006.034a1.685 1.685 0 0 0-.019-.097ZM94.504 113.215a8.588 8.588 0 0 0-.051-.309v.005c.01.051.019.113.028.169.01.057.02.111.029.171l-.007-.036h.001ZM94.674 122.085l.003-.161-.005.239.002-.078ZM90.179 70.945l-.007.242-.005.225a101.316 101.316 0 0 0 .006-.271c.003-.065.004-.128.006-.196Z" fill="#2699E0"/><path d="M94.488 113.115a16.962 16.962 0 0 0-.053-.356c.009.046.016.099.024.147.015.093.031.184.046.283l-.015-.074h-.002ZM94.692 121.657l-.004.207c0-.069.002-.138.004-.208v.001ZM90.166 71.143a94.667 94.667 0 0 0-.007.264l.007-.264ZM93.326 104.771l.006.053.064.501.02.164c.017.124.032.245.047.367l.04.301.034.273.04.312c.013.09.023.178.035.267l.043.325c.01.085.021.17.033.254l.037.285.035.262.035.262.04.304.022.166.054.404a.31.31 0 0 0 .004.031c.06.444.118.854.17 1.229-.98-6.955-3.384-26.84-3.866-34.564.389 6.163 1.975 19.898 3.105 28.804h.002ZM94.465 113.033a16.92 16.92 0 0 0-.074-.488l.01.062c.008.04.014.084.02.125.02.125.041.252.059.384a4.965 4.965 0 0 1-.017-.083h.002ZM90.153 71.717l.009-.309a69.13 69.13 0 0 0-.026 1.879c0 .374.005.716.012 1.016-.02-.756-.022-1.653.004-2.586h.001Z" fill="#2699E0"/><path d="M90.156 74.679c.008.215.019.445.033.692 0 .013 0 .025.002.038l.014.247.014.243.005.066c.483 7.724 2.886 27.608 3.866 34.565l.018.133.022.154.041.285c-.962-6.636-3.7-29.205-4.005-36.165l-.01-.26v.002ZM94.459 112.945c-.028-.198-.057-.4-.092-.605l.019.114.014.09c.027.162.05.325.074.487a4.01 4.01 0 0 1-.017-.087l.002.001ZM90.367 64.828l.117-3.484-.117 3.483Z" fill="#2699E0"/><path d="M94.442 112.852a31.278 31.278 0 0 0-.105-.699c-.765-4.771-3.772-29.217-4.153-36.936a43.908 43.908 0 0 1-.038-3.185 1920.935 1920.935 0 0 1 .075-2.47c-.016.514-.03.98-.044 1.386l-.005.196-.008.264-.008.309a51.47 51.47 0 0 0 0 2.773l.006.166v.025l.01.26c.305 6.96 3.043 29.529 4.005 36.165l.002.011c.013.082.024.162.035.24l.023.153.012.076c.041.279.08.52.112.718l.005.038c.034.205.064.406.092.605l-.018-.097.002.002ZM90.891 46.743l-.024-.563c.016.069.034.13.05.183l.01.357c.013.45.014.607.01.713l-.017-.44c-.01-.075-.02-.158-.03-.25h.001ZM90.815 45.942s-.004.005-.005.009l-.005-.062.01.053ZM92.93 101.641l.071.57-.071-.57ZM93.148 103.387l.096.754-.096-.754Z" fill="#2699E0"/><path d="M94.392 112.535c-.225-1.396-.648-4.486-1.142-8.361.416 3.262.78 5.953 1.015 7.52l.127.841ZM90.968 48.508Z" fill="#2699E0"/><path d="M90.846 41.385c-.26.485-.524.955-.787 1.404-1.506 2.986-2.791 5.941-3.538 9.212-.2.854-.366 1.71-.495 2.57a45.434 45.434 0 0 0-.487 7.319c.062 4.98.765 9.963 1.38 14.925.92 7.428 2.122 15.481 2.762 23.615.265 3.418.358 6.843.562 10.25.174 2.87.47 5.845 1.493 8.516.425 1.107.927 1.965 1.594 2.743.386.448.818.883 1.323 1.311.02-.761.038-1.572.052-2.393v.001c0-.089.002-.179.004-.268a267.229 267.229 0 0 1-.062 2.925c-1.318-.974-2.277-1.822-2.936-3.394-1.156-2.757-1.408-5.858-1.575-8.808-.2-3.538-.274-7.079-.54-10.613-.617-8.183-1.785-16.312-2.87-24.444-1.06-7.951-2.293-15.954-.516-23.901.785-3.509 2.16-6.672 3.77-9.876.298-.59.597-1.184.891-1.78l-.001.038-.023.618v.03ZM90.953 48.117Z" fill="#2699E0"/><path d="M90.951 49.074c.003.096 0 .153-.003.223l-.017.33-.001-.113c.007-.17.015-.316.021-.44Z" fill="#2699E0"/><path d="M86.828 51.648a29.872 29.872 0 0 0-.53 2.661 47.62 47.62 0 0 0-.541 7.585c.054 5.167.76 10.335 1.352 15.481.773 6.72 1.991 14.703 2.656 22.788.266 3.3.374 6.608.584 9.887.18 2.789.505 5.648 1.41 8.224.43 1.222.898 2.233 1.56 3.158.381.53.81 1.057 1.337 1.558.013-.516.025-1.051.035-1.595l.004-.267.002.002c0-.09.003-.179.004-.269v.001c-.014.821-.032 1.633-.052 2.393a11.84 11.84 0 0 1-1.323-1.311c-.667-.777-1.169-1.636-1.594-2.743-1.023-2.672-1.319-5.647-1.493-8.516-.204-3.408-.297-6.833-.562-10.249-.64-8.134-1.842-16.188-2.762-23.615-.615-4.962-1.318-9.946-1.38-14.926-.03-2.447.122-4.88.487-7.318.13-.861.295-1.717.495-2.571.747-3.271 2.034-6.225 3.538-9.212.263-.448.527-.918.787-1.403-.007.232-.015.456-.023.666-.226.377-.455.73-.684 1.044-1.402 2.77-2.6 5.515-3.308 8.548l.001-.001Z" fill="#2699E0"/><path d="M87.136 51.29c-.23.909-.426 1.824-.565 2.752-.395 2.618-.618 5.215-.596 7.85.046 5.354.754 10.707 1.324 16.039.642 6.011 1.861 13.924 2.55 21.959.264 3.182.391 6.375.604 9.523.188 2.709.528 5.456 1.33 7.932.432 1.339.87 2.5 1.527 3.571.375.611.802 1.233 1.35 1.804l.005-.265.005-.266v-.027l.006-.239.001-.059.004-.207.006-.267c-.01.544-.022 1.08-.035 1.594a10.759 10.759 0 0 1-1.337-1.558c-.662-.923-1.13-1.935-1.56-3.157-.906-2.577-1.23-5.435-1.41-8.225-.21-3.278-.319-6.587-.584-9.887-.665-8.084-1.882-16.066-2.657-22.787-.592-5.147-1.298-10.316-1.352-15.482a47.633 47.633 0 0 1 .541-7.584c.134-.895.316-1.78.53-2.662.71-3.033 1.908-5.778 3.309-8.548.229-.314.458-.667.684-1.043l-.02.651a4.775 4.775 0 0 1-.585.7c-1.298 2.552-2.407 5.09-3.078 7.885l.003.002Z" fill="#2699E0"/><path d="m90.927 49.516.001.113c0 .074-.001.14-.005.21-.006.095-.011.212-.017.337v-.21l.02-.45Z" fill="#2699E0"/><path d="M90.303 43.71c-1.193 2.337-2.215 4.666-2.847 7.223a27.145 27.145 0 0 0-.6 2.843c-.408 2.708-.668 5.387-.65 8.117.037 5.54.75 11.075 1.296 16.594.525 5.302 1.73 13.146 2.444 21.131.264 3.065.407 6.142.624 9.16.195 2.629.542 5.268 1.248 7.64.433 1.456.842 2.766 1.495 3.984.37.693.794 1.409 1.363 2.051l-.006.266c-.547-.571-.975-1.194-1.35-1.804-.657-1.072-1.095-2.233-1.527-3.571-.801-2.477-1.141-5.223-1.33-7.933-.212-3.148-.34-6.34-.603-9.523-.69-8.035-1.908-15.947-2.55-21.959-.57-5.332-1.279-10.684-1.324-16.038-.022-2.635.2-5.232.595-7.85.14-.929.335-1.844.565-2.753.67-2.794 1.78-5.333 3.078-7.886.196-.188.392-.426.585-.699l-.015.626c-.16.174-.325.306-.49.38v.002Z" fill="#2699E0"/><path d="M90.898 49.967v.21c0 .068-.002.134-.007.203l-.016.364c.002-.104.003-.21.002-.326l.02-.451Z" fill="#2699E0"/><path d="M90.382 44.02c-1.089 2.117-2.022 4.238-2.616 6.558-.261.965-.485 1.938-.636 2.934-.423 2.799-.718 5.559-.704 8.383.028 5.727.745 11.444 1.267 17.15.42 4.59 1.6 12.369 2.337 20.303.263 2.948.424 5.908.647 8.798.202 2.548.547 5.082 1.164 7.348.43 1.576.816 3.032 1.462 4.399.366.773.787 1.583 1.376 2.298l-.006.264c-.568-.641-.992-1.357-1.362-2.05-.652-1.219-1.062-2.528-1.496-3.984-.705-2.373-1.051-5.012-1.247-7.64-.218-3.019-.362-6.095-.625-9.16-.713-7.985-1.919-15.83-2.444-21.131-.545-5.519-1.258-11.053-1.295-16.594-.018-2.73.241-5.408.65-8.117.145-.963.355-1.906.6-2.843.632-2.557 1.654-4.886 2.847-7.222.166-.074.329-.207.49-.38-.004.243-.006.443-.006.598a.546.546 0 0 1-.404.09l.001-.003Z" fill="#2699E0"/><path d="m90.288 67.395.018-.537.002-.076.012-.354.014-.445c.01-.342.023-.69.035-1.044l.003-.112.117-3.484.005-.122.025-.727a1492.396 1492.396 0 0 1 .049-1.404l.013-.386v-.036c.087-2.467.17-4.74.233-6.299a2991.826 2991.826 0 0 0-.547 15.693l.02-.636v-.029l.001-.002ZM90.878 50.413c0 .117 0 .222-.002.326l-.006.177-.018.42c.004-.15.007-.298.007-.459l.02-.465-.001.001Z" fill="#2699E0"/><path d="M90.859 50.88a12.446 12.446 0 0 1-.012.58l-.019.432v.002c.007-.187.01-.369.012-.561l.019-.452Z" fill="#2699E0"/><path d="M90.536 44.63c-.88 1.685-1.637 3.39-2.154 5.232-.29 1.022-.544 2.054-.706 3.116-.452 2.98-.819 5.903-.814 8.916.011 6.102.745 12.18 1.211 18.263.242 3.161 1.34 10.812 2.124 18.646.262 2.714.457 5.442.688 8.071.216 2.388.54 4.717 1.002 6.763.41 1.818.764 3.563 1.395 5.225.359.936.77 1.935 1.402 2.79 0 .069-.002.14-.004.209l-.001.058c-.611-.785-1.026-1.69-1.389-2.544-.638-1.515-1.006-3.116-1.429-4.812-.537-2.157-.875-4.588-1.083-7.056-.227-2.759-.406-5.603-.668-8.434-.76-7.884-1.904-15.6-2.23-19.475-.496-5.894-1.22-11.792-1.24-17.706-.009-2.92.321-5.761.76-8.65.156-1.029.394-2.031.67-3.025.556-2.08 1.4-3.993 2.385-5.895.116.123.23.173.341.169l.024.562c-.091-.07-.187-.204-.286-.422h.002Z" fill="#2699E0"/><path d="M90.81 52.541c.01-.256.017-.502.022-.758l.017-.451c-.002.193-.005.374-.012.561l-.003.107-.016.366a1223.355 1223.355 0 0 0-.007.174v.002Z" fill="#2699E0"/><path d="M88.688 49.511c-.305 1.05-.572 2.11-.74 3.206-.467 3.07-.87 6.075-.868 9.183.003 6.288.75 12.545 1.182 18.818.169 2.445 1.21 10.034 2.018 17.82.261 2.595.474 5.207.71 7.707.224 2.309.529 4.536.92 6.471.39 1.941.736 3.829 1.362 5.64.354 1.017.762 2.11 1.414 3.037l-.005.267c-.631-.855-1.043-1.854-1.402-2.79-.632-1.662-.985-3.407-1.395-5.225-.462-2.047-.786-4.375-1.002-6.764-.231-2.629-.427-5.357-.688-8.07-.784-7.835-1.882-15.486-2.124-18.646-.466-6.083-1.2-12.162-1.21-18.263-.006-3.013.36-5.937.813-8.916.162-1.063.415-2.094.706-3.116.517-1.842 1.274-3.547 2.154-5.231.098.219.194.352.286.421l.024.561a3.48 3.48 0 0 1-.23-.676c-.776 1.467-1.445 2.963-1.924 4.568v-.002Z" fill="#2699E0"/><path d="M94.309 111.995c-.8-5.121-3.686-28.542-4.117-36.507a41.372 41.372 0 0 1-.058-3.147c.069-2.52.439-13.795.65-19.259.012-.289.02-.567.026-.849l.017-.45c-.004.256-.01.5-.02.759-.062 1.553-.143 3.749-.225 6.123l-.001.037-.013.385-.01.273-.04 1.132-.024.727-.005.122-.117 3.484-.003.112-.035 1.043-.014.446-.012.354-.002.075-.018.538v.029l-.02.635c-.057 1.74-.1 3.16-.123 3.967a43.968 43.968 0 0 0 .038 3.185c.38 7.72 3.388 32.166 4.153 36.936.04.244.074.476.106.7l-.017-.099c-.034-.234-.07-.482-.113-.753l-.003.002Z" fill="#2699E0"/><path d="M90.805 45.888a34.75 34.75 0 0 1-.029-.329l-.023.044a19.305 19.305 0 0 1-.056-.351c-.673 1.25-1.252 2.537-1.694 3.904-.32 1.078-.603 2.167-.775 3.297-.481 3.16-.92 6.247-.923 9.45-.005 6.474.769 12.91 1.155 19.374.104 1.73 1.08 9.255 1.912 16.99.26 2.479.49 4.976.73 7.345.23 2.228.514 4.353.838 6.18.365 2.064.709 4.095 1.329 6.052.35 1.099.754 2.285 1.428 3.283l-.005.268c-.653-.927-1.06-2.02-1.414-3.037-.626-1.81-.972-3.699-1.363-5.639-.391-1.937-.697-4.164-.92-6.472-.235-2.5-.448-5.112-.709-7.707-.808-7.786-1.85-15.374-2.018-17.82-.432-6.272-1.18-12.53-1.182-18.818-.001-3.108.4-6.113.868-9.182.168-1.096.435-2.157.74-3.207.48-1.604 1.148-3.1 1.925-4.568.08.314.156.532.229.677l.01.246c-.013.025-.025.05-.04.074l-.01-.053h-.003ZM90.934 46.721l-.004-.13.005.006v.124h-.001Z" fill="#2699E0"/><path d="M90.864 46.179c-.005-.098-.008-.194-.012-.298l.011.298ZM90.14 72.343a41.328 41.328 0 0 0 .058 3.147c.431 7.966 3.316 31.387 4.117 36.508.042.271.08.519.113.753-.006-.029-.01-.059-.015-.091a142.17 142.17 0 0 0-.123-.814c-.837-5.472-3.6-27.868-4.082-36.08a39.435 39.435 0 0 1-.077-3.11c.052-2.028.413-13.069.638-19.03.012-.321.022-.63.03-.938l.018-.454c-.007.283-.014.56-.025.85a2724.82 2724.82 0 0 0-.651 19.258h-.001Z" fill="#2699E0"/><path d="M90.126 72.654c-.02.902.012 1.986.077 3.108.481 8.213 3.245 30.609 4.081 36.081l.123.814-.02-.125-.127-.841a398.214 398.214 0 0 1-1.015-7.52l-.005-.034c-.031-.248-.064-.499-.095-.754l-.023-.18a241.08 241.08 0 0 1-.085-.669l-.04-.322a295.346 295.346 0 0 1-.19-1.511c-.023-.197-.048-.396-.073-.594-.003-.032-.008-.063-.012-.094l-.188-1.537-.049-.403-.041-.346c-.018-.14-.034-.282-.051-.423l-.036-.3a460.29 460.29 0 0 1-.065-.544c-.01-.07-.017-.14-.025-.21l-.09-.752-.02-.177-.07-.594c-.01-.094-.021-.189-.033-.282l-.056-.472-.039-.331-.044-.381-.189-1.638-.017-.157-.067-.591-.008-.07-.115-1.024-.012-.102-.109-.984c0-.012-.002-.023-.003-.034-.548-4.987-1-9.62-1.184-12.625a38.737 38.737 0 0 1-.098-3.07c.035-1.535.386-12.344.625-18.804.013-.35.024-.688.034-1.019l.018-.46-.03.938c-.227 5.962-.586 17.004-.638 19.032l.004.001Z" fill="#2699E0"/><path d="M88.502 52.186c-.496 3.25-.97 6.419-.977 9.716-.014 6.66.824 13.275 1.127 19.93.046 1.012.949 8.477 1.805 16.163.26 2.361.506 4.741.75 6.981.239 2.148.498 4.171.757 5.887.332 2.188.682 4.362 1.297 6.467.345 1.179.746 2.461 1.44 3.529 0 .09-.003.179-.004.269l-.001-.002c-.674-.998-1.079-2.185-1.428-3.283-.62-1.957-.964-3.989-1.329-6.053-.324-1.827-.607-3.951-.838-6.18-.24-2.369-.47-4.866-.73-7.344-.832-7.736-1.808-15.262-1.911-16.99-.386-6.464-1.16-12.9-1.155-19.375.003-3.203.44-6.29.922-9.45.173-1.13.454-2.219.775-3.297.441-1.366 1.022-2.654 1.694-3.904.02.128.038.244.057.352a22.342 22.342 0 0 0-1.44 3.197c-.336 1.105-.633 2.223-.81 3.387ZM90.89 46.74l.031.25.016.44c.018.507.016.592.01.685-.01-.284-.028-.713-.056-1.375Z" fill="#2699E0"/><path d="M93.259 117.331c-.615-2.105-.965-4.279-1.296-6.467-.26-1.716-.519-3.739-.757-5.887-.244-2.24-.492-4.62-.75-6.98-.857-7.687-1.76-15.15-1.806-16.164-.303-6.656-1.14-13.269-1.126-19.93.007-3.297.48-6.466.977-9.716.178-1.164.473-2.281.81-3.387a22.33 22.33 0 0 1 1.462-3.241l.029.329.005.061a22.727 22.727 0 0 0-1.187 2.495c-.351 1.133-.662 2.28-.846 3.478-.51 3.34-1.02 6.59-1.03 9.982-.024 6.849 1.184 13.635 1.098 20.487-.006.47 2.053 18.716 3.144 27.548.286 2.312.655 4.627 1.264 6.88.341 1.261.74 2.636 1.455 3.775 0 .089-.002.179-.004.268v-.002c-.694-1.069-1.096-2.35-1.441-3.529h-.001Z" fill="#2699E0"/><path d="M90.121 72.97c-.016.799.02 1.86.098 3.07.184 3.004.637 7.637 1.184 12.624-.752-6.846-1.33-13.048-1.292-15.38.02-1.127.416-13.33.67-20.138l-.035 1.019c-.24 6.46-.59 17.269-.625 18.805Z" fill="#2699E0"/><path d="M93.265 116.82c-.608-2.253-.978-4.568-1.264-6.88-1.092-8.832-3.15-27.078-3.144-27.548.086-6.85-1.122-13.638-1.099-20.487.011-3.391.52-6.642 1.031-9.982.184-1.198.495-2.346.846-3.478a22.69 22.69 0 0 1 1.188-2.495c0-.003.003-.005.004-.008l.04-.075v.019l.012.296.024.563a347.605 347.605 0 0 1 .063 1.553v.013l.006.197v.012c0 .024 0 .044.002.063v.127c0 .017-.003.032-.004.05a24.295 24.295 0 0 0-.041.76l-.02.448a90.87 90.87 0 0 0-.04.916l-.018.452-.018.451-.017.45c-.005.148-.01.299-.017.453l-.018.46c-.254 6.806-.65 19.01-.67 20.137-.04 2.332.54 8.533 1.293 15.38 0 .012.002.023.003.035l.109.984.012.102.115 1.023.007.07.068.591.017.158.188 1.638c.014.127.03.253.045.38l.039.332.055.471.034.283.07.593.02.177.09.752.024.21.066.545.035.3c.018.14.034.28.051.422l.042.346.049.404c.063.518.125 1.031.188 1.536.003.032.007.063.012.094l.073.595.003.016.115.923.072.571.04.323.084.669.023.18.096.754.004.033c.495 3.876.917 6.966 1.142 8.362l.021.125.015.091.017.098.017.097a4.01 4.01 0 0 0 .032.17l.016.075.005.026.007.036.018.097c.004.023.009.044.012.067l.009.054c.012.076.023.155.032.241v.01c.01.084.02.175.029.27l.006.075a17.222 17.222 0 0 1 .026.336c.008.105.013.215.02.327 0 .03.003.059.004.088.007.121.012.245.017.374a268.734 268.734 0 0 1 .014.412c0 .033.003.064.004.096.004.139.008.281.01.425 0 .019 0 .037.002.055l.007.411c0 .033 0 .064.002.096l.005.474v.049l.002.45v.658c0 .158 0 .318-.002.48v.085l-.004.531v.047l-.006.501v.081l-.007.539v.012l-.003-.003c-.716-1.139-1.113-2.515-1.455-3.775h-.002Z" fill="#2699E0"/><path d="M94.638 124.15H88.69c-.656-9.878-1.157-19.864-1.641-29.558l-.278-5.545c-.34-6.726-.761-14.691-1.294-22.773-.467-7.084-.185-12.437.912-17.36.713-3.197 2.66-6.947 4.576-10.326.03-.703.063-1.432.099-2.162-2.217 3.828-4.778 8.399-5.643 12.276-1.12 5.016-1.406 10.456-.932 17.636.532 8.076.952 16.037 1.293 22.759l.278 5.545c.485 9.677.983 19.645 1.637 29.509h-56.65c.655-9.864 1.155-19.832 1.638-29.509l.278-5.545c.34-6.723.76-14.683 1.294-22.759.473-7.18.185-12.619-.933-17.636-.864-3.877-3.426-8.448-5.643-12.276.035.731.069 1.46.1 2.162 1.914 3.378 3.862 7.13 4.575 10.326 1.098 4.923 1.379 10.276.912 17.36-.534 8.082-.953 16.047-1.293 22.773l-.279 5.546c-.484 9.693-.985 19.68-1.64 29.557h-5.948c.014.495.03.959.044 1.377h5.81c-.054.797-.106 1.595-.163 2.39l.494.035.5-.01c.056-.803.11-1.611.165-2.415h56.835c.055.806.108 1.612.165 2.415l.5.01.492-.035c-.056-.795-.108-1.593-.163-2.39h5.81c.015-.418.029-.882.044-1.377h-.004Z" fill="#2699E0"/><path d="M43.897 0h-.82s-2.857 3.552-14.08 5.106C17.774 6.66 5.439 33.008 0 41.953c4.387 13.158 18.696 14.6 18.696 14.6l9.148-10.006.1-2.376c.047-1.12-.347-10.444-.655-14.32-1.402-17.575 12.896-17.792 16.443-19.062 0 0 5.525-1.18 8.223-6.36C46.267 2.813 43.897 0 43.897 0Z" fill="#2699E0"/><path d="M44.044 9.368c-3.834 1.373-19.29 1.607-17.776 20.607.335 4.192.76 14.27.709 15.482l-.09 2.134.958-1.048.1-2.376c.047-1.12-.347-10.443-.655-14.32-1.402-17.575 12.896-17.792 16.443-19.062 0 0 5.525-1.18 8.222-6.36-.072-.02-.143-.043-.216-.064-3.097 4.022-7.696 5.006-7.696 5.006l.002.001Z" fill="#4A76B6"/><path d="M.4 41.287a84.69 84.69 0 0 1-.4.668c4.387 13.158 18.696 14.6 18.696 14.6l.554-.607C15.293 55.154 4.902 51.93.4 41.288Z" fill="#133F7E"/><path d="M17.192 21.177c4.41-6.533 12.693-10.411 16.916-17.032l-.056.012a44.698 44.698 0 0 1-1.862.412l-.39.076c-.24.047-.485.092-.735.135l-.236.04a63.407 63.407 0 0 1-1.83.285c-.037.005-.073.013-.11.02a8.667 8.667 0 0 0-1.252.29c-.024.008-.049.014-.073.023-.123.039-.244.081-.367.125L27.1 5.6c-.124.045-.246.094-.37.144a13.149 13.149 0 0 0-1.721.874l-.078.046c-.125.075-.25.154-.376.235l-.082.054c-.13.084-.259.17-.388.26l-.012.008c-.43.297-.86.62-1.288.968l-.023.019c-.129.104-.258.213-.388.322l-.08.068a20.823 20.823 0 0 0-.445.389 32.835 32.835 0 0 0-1.669 1.603l-.046.048c-.13.133-.258.268-.386.405l-.07.074c-.13.139-.26.278-.389.419l-.03.033a50.6 50.6 0 0 0-1.67 1.935l-.043.05c-.131.16-.262.322-.393.485l-.041.052c-.7.874-1.393 1.789-2.077 2.733 0 0 0 .002-.002.003l-.019.025c-.145.2-.29.403-.434.606l-.033.046-.044.063-.013.018-.023.033-.35.497-.022.032c-.006.01-.013.019-.02.027l-.008.012-.002.004-.013.018-.08.115a15.103 15.103 0 0 0-.039.056c-.094.137-.189.274-.283.413l-.011.016c-.011.015-.02.03-.032.045l-.134.197-.005.007-.26.384-.003.003-.156.234-.046.068-.005.008-.03.045c-.007.011-.015.02-.021.032-.06.09-.12.178-.178.267-.138.207-.275.415-.411.624l-.025.038a.53.53 0 0 0-.02.032l-.02.029-.017.027-.013.02-.22.34-.037.058-.167.256-.003.006-.009.014-.01.017a.21.21 0 0 1-.01.015c-.08.123-.158.247-.237.371l-.027.042-.175.273-.006.009-.01.018-.002.002c0 .003-.003.005-.004.008l-.004.006-.012.02c-.002.003-.005.006-.006.01l-.005.008-.003.006-.021.032-.093.148-.144.229a7.799 7.799 0 0 0-.1.16l-.057.09-.003.002v.001c-.12.19-.236.38-.355.572l-.072.115-.004.008-.002.002-.005.006-.008.015-.002.003-.003.003c0 .002-.003.004-.004.006l-.002.005-.002.004-.136.221-.287.467-.005.009c-.003.003-.005.007-.006.01-.003.004-.005.01-.009.014l-.008.014c-.002.004-.006.007-.008.012l-.182.3-.01.017-.125.206c0 .002-.002.003-.003.005l-.019.032-.002.003-.013.021-.001.003-.033.052-.006.01-.017.027-.01.018c-.006.008-.01.017-.016.024l-.014.024-.208.347-.125.209a.19.19 0 0 0-.012.02c-.005.008-.01.015-.013.023a.258.258 0 0 1-.015.022l-.006.011-.02.033-.01.017a2.77 2.77 0 0 0-.036.06l-.098.163-.059.1-.026.044c-.01.015-.018.03-.027.046l-.019.03-.042.071-.014.024c-.009.015-.019.03-.027.047l-.03.05-.032.053c-.011.017-.02.036-.032.053l-.032.056c-.384.648-.76 1.294-1.13 1.935l-.011.02a361.092 361.092 0 0 0-2.83 5.01l-.027.047a532.586 532.586 0 0 0-1.033 1.864c-.62 1.119-1.203 2.174-1.749 3.145a46.479 46.479 0 0 0 3.918 5.562c1.825-2.757 3.091-6.012 4.242-8.865 1.997-4.953 4.167-9.81 7.17-14.26l-.005.004Z" fill="#2699E0"/><path d="M1.5 39.377s4.493 11.916 18.338 15.926l.477-.522c-.312-.092-10.33-2.565-18.455-16.045l-.36.641Z" fill="#133F7E"/><path d="M74.83 0h.82s2.858 3.552 14.08 5.106c11.224 1.554 23.559 27.903 28.998 36.847-4.387 13.158-18.696 14.6-18.696 14.6l-9.148-10.006-.1-2.376c-.047-1.12.346-10.444.655-14.32 1.402-17.575-12.896-17.792-16.443-19.062 0 0-5.525-1.18-8.223-6.36C72.46 2.813 74.831 0 74.831 0Z" fill="#2699E0"/><path d="M74.684 9.368c3.835 1.373 19.291 1.607 17.776 20.607-.334 4.192-.759 14.27-.708 15.482l.09 2.134-.958-1.048-.1-2.376c-.047-1.12.346-10.443.655-14.32 1.402-17.575-12.896-17.792-16.443-19.062 0 0-5.525-1.18-8.223-6.36.073-.02.144-.043.217-.064 3.097 4.022 7.695 5.006 7.695 5.006v.001Z" fill="#4A76B6"/><path d="M118.334 41.287c.104.175.301.505.4.668-4.387 13.158-18.695 14.6-18.695 14.6l-.555-.607c3.957-.794 14.348-4.019 18.85-14.66Z" fill="#133F7E"/><path d="M117.237 39.377s-4.493 11.916-18.338 15.926l-.477-.522c.312-.092 10.331-2.565 18.455-16.045l.36.641Z" fill="#133F7E"/><path d="M74.05 0c-1.69 1.45-6.236 4.509-14.683 4.766C50.919 4.509 46.374 1.45 44.683 0h-.785s4.363 5.184 15.469 5.522C70.47 5.184 74.835 0 74.835 0h-.784Z" fill="#3AA1DB"/><path d="M91.179 34.535a102.398 102.398 0 0 1-4.615 2.365c-11.86 5.678-25.37 8.514-38.45 5.895-5.146-1.03-9.94-3.206-13.992-6.525-2.688-2.201-4.954-4.846-6.927-7.696.011.599.038 1.218.09 1.862.128 1.597.269 4.115.388 6.605v-.03c2.216 3.828 4.777 8.4 5.642 12.276 1.12 5.017 1.406 10.457.933 17.637-.533 8.075-.952 16.036-1.293 22.758l-.279 5.546c-.484 9.676-.984 19.644-1.637 29.508h56.647c-.654-9.864-1.154-19.832-1.637-29.508l-.278-5.546c-.34-6.722-.76-14.683-1.293-22.758-.474-7.18-.186-12.62.932-17.637.864-3.877 3.426-8.448 5.643-12.276l-.001.03c.04-.845.083-1.692.127-2.506ZM104.496 37.584c-1.342-3.047-2.409-6.185-3.562-9.36-.834-2.297-1.748-4.697-2.941-6.925-1.099-2.052-2.448-3.945-4.187-5.476-3.335-2.935-7.563-4.605-10.525-7.988a21.022 21.022 0 0 1-3.316-5.186 20.742 20.742 0 0 1-.496-.213c.839 1.929 1.937 3.739 3.313 5.331 2.975 3.443 7.29 5.038 10.666 7.994 3.663 3.207 5.514 8.112 7.08 12.576 1.693 4.826 3.213 9.541 5.858 13.96 1.079 1.802 2.245 3.597 3.525 5.309.096-.093.191-.19.287-.285-1.256-1.693-2.394-3.475-3.442-5.266a43.852 43.852 0 0 1-2.26-4.47v-.001Z" fill="#2699E0"/><path d="M104.922 37.37c-1.322-3.025-2.401-6.129-3.577-9.258-.854-2.27-1.79-4.628-2.993-6.824-1.106-2.02-2.464-3.878-4.186-5.402-3.294-2.913-7.435-4.658-10.383-7.981a21.28 21.28 0 0 1-3.323-5.056c-.17-.066-.333-.133-.491-.199a21.019 21.019 0 0 0 3.315 5.187c2.962 3.382 7.19 5.052 10.525 7.987 1.74 1.53 3.088 3.424 4.187 5.476 1.193 2.228 2.107 4.629 2.942 6.925 1.153 3.176 2.22 6.314 3.562 9.36a43.718 43.718 0 0 0 2.26 4.47c1.047 1.791 2.185 3.574 3.441 5.266.096-.095.192-.188.287-.285-1.233-1.673-2.342-3.444-3.359-5.224a46.775 46.775 0 0 1-2.209-4.443l.002.001Z" fill="#2699E0"/><path d="M105.345 37.156c-1.302-3.002-2.395-6.074-3.592-9.156-.875-2.243-1.832-4.56-3.045-6.724-1.113-1.987-2.48-3.812-4.185-5.328-3.252-2.892-7.306-4.713-10.241-7.975a21.564 21.564 0 0 1-3.335-4.938 25.774 25.774 0 0 1-.486-.185 21.258 21.258 0 0 0 3.323 5.055c2.948 3.322 7.09 5.068 10.383 7.982 1.722 1.523 3.08 3.382 4.186 5.402 1.202 2.196 2.138 4.555 2.993 6.824 1.176 3.129 2.255 6.234 3.577 9.258a46.07 46.07 0 0 0 2.21 4.443c1.017 1.78 2.125 3.55 3.358 5.224.095-.095.188-.193.283-.29-1.208-1.652-2.286-3.41-3.271-5.176a49.148 49.148 0 0 1-2.157-4.417l-.001.001Z" fill="#2699E0"/><path d="M105.765 36.942c-1.282-2.981-2.387-6.018-3.607-9.054-.895-2.218-1.875-4.492-3.096-6.624-1.12-1.955-2.496-3.745-4.183-5.253-3.21-2.872-7.178-4.768-10.1-7.97a21.887 21.887 0 0 1-3.353-4.834 29.627 29.627 0 0 1-.48-.172 21.541 21.541 0 0 0 3.334 4.938c2.935 3.262 6.99 5.083 10.242 7.975 1.704 1.516 3.072 3.34 4.184 5.328 1.213 2.164 2.17 4.48 3.045 6.724 1.198 3.082 2.291 6.153 3.593 9.156a49.418 49.418 0 0 0 2.157 4.417c.985 1.767 2.062 3.524 3.27 5.176.094-.096.187-.195.281-.295-1.182-1.63-2.229-3.371-3.182-5.122a52.635 52.635 0 0 1-2.106-4.39h.001Z" fill="#2699E0"/><path d="M106.182 36.725c-1.262-2.959-2.381-5.962-3.623-8.951-.914-2.19-1.916-4.424-3.147-6.524-1.127-1.924-2.512-3.678-4.181-5.18-3.17-2.85-7.05-4.823-9.958-7.963a22.227 22.227 0 0 1-3.377-4.742c-.161-.053-.32-.107-.474-.16a21.912 21.912 0 0 0 3.353 4.835c2.922 3.202 6.888 5.097 10.1 7.97 1.687 1.509 3.064 3.298 4.183 5.253 1.221 2.131 2.202 4.407 3.096 6.623 1.22 3.036 2.326 6.072 3.608 9.054a52.771 52.771 0 0 0 2.105 4.39c.953 1.751 2 3.492 3.182 5.123.094-.098.187-.193.28-.295-1.155-1.608-2.17-3.335-3.091-5.07a57.176 57.176 0 0 1-2.055-4.364l-.001.001Z" fill="#2699E0"/><path d="M106.608 36.51c-1.242-2.939-2.375-5.908-3.64-8.85-.934-2.164-1.958-4.355-3.198-6.424a22.382 22.382 0 0 0-4.18-5.105c-3.128-2.83-6.92-4.877-9.817-7.958a22.615 22.615 0 0 1-3.405-4.659c-.16-.05-.316-.1-.47-.15a22.227 22.227 0 0 0 3.378 4.741c2.909 3.142 6.788 5.113 9.958 7.963 1.669 1.502 3.054 3.256 4.181 5.18 1.231 2.1 2.233 4.333 3.147 6.524 1.242 2.989 2.361 5.991 3.623 8.952.616 1.444 1.285 2.913 2.055 4.363.92 1.736 1.935 3.462 3.091 5.07.091-.097.184-.2.275-.301-1.127-1.585-2.108-3.293-2.996-5.01-.747-1.446-1.399-2.91-2.004-4.337h.002Z" fill="#2699E0"/><path d="M107.021 36.295c-1.222-2.916-2.367-5.851-3.655-8.747-.954-2.138-2-4.287-3.25-6.323a23.192 23.192 0 0 0-4.178-5.031c-3.087-2.809-6.793-4.932-9.674-7.952-1.337-1.398-2.502-2.924-3.44-4.583-.16-.047-.311-.096-.465-.143a22.655 22.655 0 0 0 3.406 4.658c2.895 3.082 6.687 5.128 9.817 7.958a22.359 22.359 0 0 1 4.18 5.106c1.24 2.067 2.264 4.26 3.198 6.423 1.265 2.942 2.397 5.912 3.639 8.85.604 1.426 1.256 2.89 2.004 4.336.888 1.717 1.869 3.425 2.996 5.01l.274-.304c-1.097-1.561-2.046-3.251-2.9-4.948-.725-1.443-1.36-2.9-1.951-4.31h-.001Z" fill="#2699E0"/><path d="M107.447 36.081c-1.202-2.895-2.36-5.795-3.67-8.644-.973-2.111-2.041-4.22-3.301-6.223-1.147-1.827-2.56-3.476-4.177-4.957-3.046-2.788-6.664-4.985-9.533-7.946-1.343-1.383-2.525-2.881-3.48-4.52a29.847 29.847 0 0 1-.458-.13c.938 1.658 2.103 3.184 3.44 4.582 2.881 3.021 6.587 5.143 9.674 7.952a23.208 23.208 0 0 1 4.178 5.03c1.249 2.037 2.296 4.186 3.25 6.324 1.288 2.896 2.433 5.83 3.654 8.747.591 1.41 1.227 2.866 1.952 4.309.854 1.698 1.802 3.387 2.899 4.948.091-.103.183-.2.274-.304-1.067-1.538-1.981-3.208-2.802-4.886-.705-1.438-1.322-2.89-1.901-4.282h.001Z" fill="#2699E0"/><path d="M107.872 35.864c-1.181-2.873-2.352-5.74-3.685-8.541-.993-2.086-2.084-4.152-3.352-6.123-1.154-1.795-2.576-3.41-4.176-4.882-3.006-2.766-6.536-5.04-9.392-7.94-1.35-1.369-2.552-2.843-3.526-4.462a29.341 29.341 0 0 1-.452-.125c.955 1.638 2.138 3.136 3.48 4.52 2.87 2.96 6.487 5.158 9.534 7.946 1.617 1.48 3.03 3.13 4.177 4.956 1.259 2.004 2.327 4.112 3.301 6.223 1.309 2.85 2.468 5.75 3.67 8.644.579 1.393 1.196 2.844 1.9 4.282.82 1.678 1.735 3.348 2.803 4.886.089-.102.178-.21.267-.314-1.034-1.512-1.913-3.16-2.699-4.814-.683-1.435-1.284-2.88-1.85-4.255Z" fill="#2699E0"/><path d="M108.293 35.65c-1.162-2.852-2.346-5.684-3.7-8.44-1.014-2.058-2.126-4.082-3.404-6.022-1.161-1.763-2.591-3.342-4.173-4.807-2.965-2.746-6.408-5.095-9.25-7.935-1.36-1.357-2.584-2.81-3.577-4.411a29.4 29.4 0 0 1-.447-.119c.974 1.618 2.176 3.093 3.526 4.462 2.856 2.9 6.386 5.174 9.392 7.94 1.6 1.473 3.021 3.087 4.176 4.882 1.268 1.971 2.359 4.037 3.352 6.123 1.333 2.802 2.504 5.668 3.685 8.541.566 1.377 1.167 2.822 1.85 4.256.786 1.655 1.664 3.302 2.699 4.814l.267-.316c-.999-1.486-1.844-3.11-2.596-4.74-.66-1.43-1.244-2.87-1.798-4.23l-.002.002ZM88.828 4.97ZM86.203 4.498l.342.07-.342-.07ZM87.906 4.82Z" fill="#2699E0"/><path d="M101.536 21.174C97.126 14.64 88.842 10.762 84.62 4.14l.055.013c-.166-.04-.333-.08-.495-.123.993 1.602 2.216 3.055 3.577 4.412 2.843 2.84 6.286 5.188 9.25 7.934 1.582 1.465 3.013 3.045 4.173 4.808 1.278 1.938 2.391 3.963 3.404 6.022 1.355 2.756 2.539 5.588 3.7 8.44.554 1.359 1.137 2.797 1.798 4.229.752 1.63 1.596 3.254 2.596 4.74.09-.108.18-.21.269-.32-1.825-2.756-3.091-6.01-4.242-8.864-1.997-4.953-4.168-9.81-7.171-14.26l.002.002ZM86.938 4.645Z" fill="#2699E0"/><path d="m105.971 20.093-.178-.267-.021-.032-.03-.045-.006-.008-.045-.067-.157-.235-.002-.003-.261-.384-.004-.006-.135-.198-.031-.045-.011-.016-.284-.412-.018-.027-.02-.03-.08-.115-.013-.018-.002-.004-.009-.012-.02-.026-.021-.033a102.03 102.03 0 0 0-.35-.497l-.023-.032-.013-.019c-.015-.02-.029-.042-.045-.062l-.032-.047c-.145-.204-.29-.405-.435-.606l-.018-.025-.003-.003a71.123 71.123 0 0 0-2.076-2.733l-.041-.052a46.498 46.498 0 0 0-.394-.484l-.042-.051a49.987 49.987 0 0 0-1.67-1.934l-.03-.034-.389-.418-.07-.075a68.47 68.47 0 0 0-.386-.405l-.047-.048a32.34 32.34 0 0 0-1.669-1.603l-.064-.058a34.806 34.806 0 0 0-.38-.33l-.08-.069a20.13 20.13 0 0 0-.389-.322l-.023-.019c-.429-.347-.858-.67-1.287-.967l-.012-.01c-.13-.089-.259-.174-.388-.26-.027-.016-.054-.035-.083-.053-.125-.08-.25-.159-.376-.235l-.077-.046a13.364 13.364 0 0 0-1.657-.846 10.5 10.5 0 0 0-.898-.332l-.072-.023a8.816 8.816 0 0 0-1.252-.292c-.037-.005-.073-.014-.11-.02-.31-.042-.61-.088-.908-.133l-.267-.042a43.917 43.917 0 0 1-.656-.109l-.236-.04a66.076 66.076 0 0 1-1.124-.211l-.343-.07a44.728 44.728 0 0 1-1.575-.354c4.224 6.62 12.507 10.5 16.916 17.032 3.003 4.45 5.173 9.307 7.17 14.259 1.151 2.854 2.417 6.108 4.243 8.865a46.457 46.457 0 0 0 3.917-5.561c-.545-.971-1.128-2.027-1.749-3.145a1142.944 1142.944 0 0 0-1.033-1.864l-.026-.047a367.56 367.56 0 0 0-2.822-4.994c-.003-.006-.007-.011-.009-.017-.004-.006-.007-.014-.012-.02-.37-.641-.746-1.286-1.13-1.935l-.032-.056-.032-.053a4.086 4.086 0 0 1-.031-.052l-.031-.051-.027-.046a.277.277 0 0 0-.014-.024l-.042-.072-.019-.03c-.01-.015-.018-.03-.027-.046l-.026-.044-.059-.1-.098-.163-.036-.06-.01-.017-.02-.032-.006-.011-.015-.023-.013-.023-.012-.02a21.63 21.63 0 0 0-.125-.208l-.208-.348a.295.295 0 0 1-.014-.023c-.005-.008-.01-.017-.016-.024l-.01-.019-.017-.027-.006-.01-.033-.052-.001-.002-.013-.022-.002-.003a.523.523 0 0 1-.019-.031l-.003-.006-.125-.206-.01-.016-.182-.301-.008-.012-.008-.014c-.004-.004-.006-.01-.009-.014a.06.06 0 0 0-.007-.01l-.005-.008-.287-.467-.136-.222-.002-.004-.002-.004-.004-.007-.003-.003-.002-.003c-.003-.005-.005-.01-.009-.014l-.004-.007-.002-.002-.004-.007-.072-.116-.355-.572s0-.003-.002-.003l-.057-.09-.101-.16-.144-.229c-.03-.05-.062-.098-.093-.148l-.021-.032-.003-.005-.005-.01a.026.026 0 0 1-.006-.009l-.012-.02-.004-.006-.004-.007-.002-.003-.01-.018-.006-.008a15.391 15.391 0 0 0-.175-.273l-.027-.043-.237-.37-.01-.016a.166.166 0 0 0-.011-.017l-.008-.014-.003-.005-.167-.257-.037-.057-.22-.34-.013-.02-.018-.028-.018-.029-.021-.032-.025-.038a281.56 281.56 0 0 0-.411-.623l-.003-.004Z" fill="#2699E0"/></svg>