<svg width="73" height="21" viewBox="0 0 73 21" fill="none" xmlns="http://www.w3.org/2000/svg">
<path d="M19.0461 19.94H18.6161C18.6161 19.94 18.5261 19.93 18.4961 19.9C18.4661 19.88 18.4461 19.84 18.4261 19.81L18.1361 19.05H16.6561L16.3661 19.81C16.3661 19.81 16.3361 19.87 16.2961 19.9C16.2561 19.93 16.2261 19.94 16.1761 19.94H15.7461L17.1061 16.5H17.6761L19.0361 19.94H19.0461ZM17.9861 18.65L17.5161 17.39C17.4761 17.29 17.4361 17.17 17.3961 17.02C17.3761 17.09 17.3561 17.16 17.3361 17.23C17.3161 17.29 17.2961 17.35 17.2761 17.4L16.8061 18.65H17.9861Z" fill="white"/>
<path d="M20.1665 17.86C20.2665 17.74 20.3865 17.64 20.5165 17.57C20.6465 17.5 20.7965 17.46 20.9665 17.46C21.1065 17.46 21.2265 17.49 21.3365 17.54C21.4465 17.59 21.5465 17.67 21.6265 17.78C21.7065 17.89 21.7665 18.02 21.8065 18.17C21.8465 18.32 21.8765 18.5 21.8765 18.7C21.8765 18.88 21.8565 19.05 21.8065 19.2C21.7565 19.36 21.6865 19.49 21.5965 19.6C21.5065 19.71 21.3965 19.8 21.2665 19.87C21.1365 19.93 20.9965 19.97 20.8265 19.97C20.6865 19.97 20.5665 19.95 20.4665 19.9C20.3665 19.85 20.2765 19.79 20.1965 19.71V20.74H19.6865V17.5H19.9965C20.0665 17.5 20.1065 17.53 20.1265 17.6L20.1665 17.86ZM20.1965 19.33C20.2665 19.42 20.3465 19.49 20.4365 19.52C20.5265 19.56 20.6165 19.58 20.7165 19.58C20.9165 19.58 21.0765 19.51 21.1865 19.36C21.2965 19.21 21.3565 19 21.3565 18.71C21.3565 18.56 21.3465 18.43 21.3165 18.33C21.2865 18.22 21.2565 18.14 21.2065 18.07C21.1565 18 21.0965 17.95 21.0365 17.92C20.9665 17.89 20.8865 17.87 20.8065 17.87C20.6765 17.87 20.5665 17.9 20.4665 17.95C20.3765 18.01 20.2865 18.09 20.2065 18.19V19.32L20.1965 19.33Z" fill="white"/>
<path d="M23.1861 17.8297C23.2361 17.7797 23.2961 17.7297 23.3461 17.6797C23.4061 17.6397 23.4661 17.5997 23.5261 17.5697C23.5861 17.5397 23.6561 17.5097 23.7261 17.4997C23.7961 17.4897 23.8761 17.4697 23.9561 17.4697C24.0861 17.4697 24.2061 17.4897 24.3061 17.5397C24.4061 17.5797 24.4961 17.6497 24.5661 17.7297C24.6361 17.8097 24.6861 17.9097 24.7261 18.0197C24.7561 18.1297 24.7761 18.2597 24.7761 18.3997V19.9497H24.2661V18.3997C24.2661 18.2397 24.2261 18.1097 24.1561 18.0197C24.0761 17.9297 23.9661 17.8797 23.8161 17.8797C23.7061 17.8797 23.5961 17.9097 23.4961 17.9597C23.3961 18.0097 23.3061 18.0797 23.2161 18.1697V19.9397H22.7061V17.5097H23.0161C23.0861 17.5097 23.1261 17.5397 23.1461 17.6097L23.1861 17.8297Z" fill="white"/>
<path d="M26.0864 18.7605C26.0864 18.9005 26.1164 19.0205 26.1464 19.1205C26.1864 19.2205 26.2364 19.3005 26.2964 19.3705C26.3564 19.4405 26.4264 19.4905 26.5164 19.5205C26.6064 19.5505 26.6964 19.5705 26.8064 19.5705C26.9164 19.5705 26.9964 19.5605 27.0664 19.5405C27.1364 19.5205 27.2064 19.4905 27.2564 19.4605C27.3064 19.4305 27.3564 19.4105 27.3964 19.3805C27.4364 19.3605 27.4664 19.3505 27.5064 19.3505C27.5464 19.3505 27.5764 19.3705 27.6064 19.4005L27.7564 19.5905C27.6964 19.6605 27.6264 19.7205 27.5464 19.7705C27.4664 19.8205 27.3864 19.8605 27.3064 19.8905C27.2264 19.9205 27.1364 19.9405 27.0464 19.9605C26.9564 19.9805 26.8664 19.9805 26.7864 19.9805C26.6164 19.9805 26.4564 19.9505 26.3164 19.9005C26.1764 19.8405 26.0464 19.7605 25.9464 19.6505C25.8364 19.5405 25.7564 19.4005 25.6964 19.2405C25.6364 19.0805 25.6064 18.8905 25.6064 18.6805C25.6064 18.5105 25.6364 18.3505 25.6864 18.2105C25.7364 18.0605 25.8164 17.9405 25.9164 17.8305C26.0164 17.7205 26.1364 17.6405 26.2764 17.5705C26.4164 17.5105 26.5764 17.4805 26.7564 17.4805C26.9064 17.4805 27.0464 17.5005 27.1764 17.5505C27.3064 17.6005 27.4164 17.6705 27.5064 17.7605C27.5964 17.8505 27.6664 17.9705 27.7264 18.1005C27.7764 18.2405 27.8064 18.3905 27.8064 18.5605C27.8064 18.6405 27.8064 18.6905 27.7764 18.7205C27.7564 18.7505 27.7264 18.7605 27.6764 18.7605H26.1164H26.0864ZM27.3064 18.4405C27.3064 18.3505 27.2964 18.2705 27.2664 18.2005C27.2464 18.1305 27.2064 18.0605 27.1564 18.0105C27.1064 17.9605 27.0464 17.9105 26.9764 17.8805C26.9064 17.8505 26.8264 17.8305 26.7364 17.8305C26.5464 17.8305 26.4064 17.8805 26.2964 17.9905C26.1864 18.1005 26.1264 18.2505 26.0964 18.4405H27.3064Z" fill="white"/>
<path d="M30.6164 16.4102V19.9402H30.1064V16.4102H30.6164Z" fill="white"/>
<path d="M32.1959 16.7697C32.1959 16.7697 32.1959 16.8597 32.1659 16.8997C32.1459 16.9397 32.1259 16.9797 32.0859 17.0097C32.0559 17.0397 32.0159 17.0697 31.9759 17.0797C31.9359 17.0997 31.8859 17.1097 31.8459 17.1097C31.8059 17.1097 31.7559 17.1097 31.7159 17.0797C31.6759 17.0597 31.6359 17.0397 31.6059 17.0097C31.5759 16.9797 31.5559 16.9397 31.5359 16.8997C31.5159 16.8597 31.5059 16.8097 31.5059 16.7697C31.5059 16.7297 31.5059 16.6797 31.5359 16.6397C31.5559 16.5997 31.5759 16.5597 31.6059 16.5297C31.6359 16.4997 31.6759 16.4697 31.7159 16.4597C31.7559 16.4397 31.7959 16.4297 31.8459 16.4297C31.8959 16.4297 31.9359 16.4297 31.9759 16.4597C32.0159 16.4797 32.0559 16.4997 32.0859 16.5297C32.1159 16.5597 32.1459 16.5997 32.1659 16.6397C32.1859 16.6797 32.1959 16.7297 32.1959 16.7697ZM32.1059 17.5097V19.9397H31.5959V17.5097H32.1059Z" fill="white"/>
<path d="M35.2464 17.5098L33.9064 20.6398C33.9064 20.6398 33.8664 20.7098 33.8464 20.7298C33.8264 20.7498 33.7864 20.7598 33.7364 20.7598H33.3564L33.8064 19.7898L32.8164 17.5198H33.2664C33.2664 17.5198 33.3464 17.5198 33.3664 17.5498C33.3864 17.5698 33.4064 17.5898 33.4164 17.6198L33.9964 18.9998C33.9964 18.9998 34.0264 19.0798 34.0364 19.1198C34.0464 19.1598 34.0564 19.1998 34.0664 19.2398C34.0764 19.1998 34.0964 19.1598 34.1064 19.1198C34.1164 19.0798 34.1364 19.0398 34.1464 18.9998L34.7064 17.6198C34.7064 17.6198 34.7364 17.5698 34.7664 17.5498C34.7964 17.5298 34.8264 17.5198 34.8564 17.5198H35.2664L35.2464 17.5098Z" fill="white"/>
<path d="M36.2166 18.7605C36.2166 18.9005 36.2466 19.0205 36.2766 19.1205C36.3166 19.2205 36.3666 19.3005 36.4266 19.3705C36.4866 19.4405 36.5566 19.4905 36.6466 19.5205C36.7366 19.5505 36.8266 19.5705 36.9366 19.5705C37.0466 19.5705 37.1266 19.5605 37.1966 19.5405C37.2666 19.5205 37.3366 19.4905 37.3866 19.4605C37.4366 19.4305 37.4866 19.4105 37.5266 19.3805C37.5666 19.3605 37.5966 19.3505 37.6266 19.3505C37.6666 19.3505 37.6966 19.3705 37.7266 19.4005L37.8766 19.5905C37.8166 19.6605 37.7466 19.7205 37.6666 19.7705C37.5866 19.8205 37.5066 19.8605 37.4266 19.8905C37.3366 19.9205 37.2566 19.9405 37.1666 19.9605C37.0766 19.9805 36.9866 19.9805 36.9066 19.9805C36.7366 19.9805 36.5866 19.9505 36.4366 19.9005C36.2966 19.8405 36.1666 19.7605 36.0666 19.6505C35.9566 19.5405 35.8766 19.4005 35.8166 19.2405C35.7566 19.0805 35.7266 18.8905 35.7266 18.6805C35.7266 18.5105 35.7566 18.3505 35.8066 18.2105C35.8566 18.0705 35.9366 17.9405 36.0366 17.8305C36.1366 17.7205 36.2566 17.6405 36.3966 17.5705C36.5366 17.5105 36.6966 17.4805 36.8766 17.4805C37.0266 17.4805 37.1666 17.5005 37.2966 17.5505C37.4266 17.6005 37.5366 17.6705 37.6266 17.7605C37.7166 17.8505 37.7866 17.9705 37.8466 18.1005C37.8966 18.2405 37.9266 18.3905 37.9266 18.5605C37.9266 18.6405 37.9266 18.6905 37.8966 18.7205C37.8666 18.7505 37.8466 18.7605 37.7966 18.7605H36.2366H36.2166ZM37.4366 18.4405C37.4366 18.3505 37.4266 18.2705 37.3966 18.2005C37.3766 18.1305 37.3366 18.0605 37.2866 18.0105C37.2366 17.9605 37.1766 17.9105 37.1066 17.8805C37.0366 17.8505 36.9566 17.8305 36.8666 17.8305C36.6766 17.8305 36.5366 17.8805 36.4266 17.9905C36.3166 18.1005 36.2566 18.2505 36.2266 18.4405H37.4366Z" fill="white"/>
<path d="M38.626 19.6505C38.626 19.6505 38.626 19.5605 38.656 19.5205C38.676 19.4805 38.696 19.4405 38.726 19.4105C38.756 19.3805 38.786 19.3605 38.836 19.3405C38.876 19.3205 38.916 19.3105 38.966 19.3105C39.016 19.3105 39.056 19.3105 39.096 19.3405C39.136 19.3605 39.176 19.3805 39.206 19.4105C39.236 19.4405 39.256 19.4805 39.276 19.5205C39.296 19.5605 39.306 19.6005 39.306 19.6505C39.306 19.7005 39.306 19.7405 39.276 19.7805C39.256 19.8205 39.236 19.8505 39.206 19.8905C39.176 19.9205 39.136 19.9405 39.096 19.9605C39.056 19.9805 39.016 19.9905 38.966 19.9905C38.916 19.9905 38.876 19.9905 38.836 19.9605C38.796 19.9405 38.756 19.9205 38.726 19.8905C38.696 19.8605 38.676 19.8205 38.656 19.7805C38.636 19.7405 38.626 19.7005 38.626 19.6505Z" fill="white"/>
<path d="M44.4963 19.94H44.0663C44.0663 19.94 43.9763 19.93 43.9463 19.9C43.9163 19.88 43.8963 19.84 43.8763 19.81L43.5863 19.05H42.1063L41.8163 19.81C41.8163 19.81 41.7863 19.87 41.7463 19.9C41.7063 19.93 41.6763 19.94 41.6263 19.94H41.1963L42.5563 16.5H43.1263L44.4863 19.94H44.4963ZM43.4363 18.65L42.9663 17.39C42.9263 17.29 42.8863 17.17 42.8463 17.02C42.8263 17.09 42.8063 17.16 42.7863 17.23C42.7663 17.29 42.7463 17.35 42.7263 17.4L42.2563 18.65H43.4363Z" fill="white"/>
<path d="M45.606 17.86C45.706 17.74 45.826 17.64 45.956 17.57C46.086 17.5 46.236 17.46 46.406 17.46C46.546 17.46 46.666 17.49 46.776 17.54C46.886 17.59 46.986 17.67 47.066 17.78C47.146 17.89 47.206 18.02 47.246 18.17C47.286 18.32 47.316 18.5 47.316 18.7C47.316 18.88 47.296 19.05 47.246 19.2C47.196 19.36 47.126 19.49 47.036 19.6C46.946 19.71 46.836 19.8 46.706 19.87C46.576 19.93 46.436 19.97 46.266 19.97C46.126 19.97 46.006 19.95 45.906 19.9C45.806 19.85 45.716 19.79 45.636 19.71V20.74H45.126V17.5H45.436C45.506 17.5 45.546 17.53 45.566 17.6L45.606 17.86ZM45.636 19.33C45.706 19.42 45.786 19.49 45.876 19.52C45.966 19.56 46.056 19.58 46.156 19.58C46.356 19.58 46.516 19.51 46.626 19.36C46.736 19.21 46.796 19 46.796 18.71C46.796 18.56 46.786 18.43 46.756 18.33C46.726 18.22 46.696 18.14 46.646 18.07C46.596 18 46.536 17.95 46.476 17.92C46.406 17.89 46.326 17.87 46.246 17.87C46.116 17.87 46.006 17.9 45.906 17.95C45.816 18.01 45.726 18.09 45.646 18.19V19.32L45.636 19.33Z" fill="white"/>
<path d="M48.6265 17.8297C48.6765 17.7797 48.7365 17.7297 48.7865 17.6797C48.8465 17.6397 48.9065 17.5997 48.9665 17.5697C49.0265 17.5397 49.0965 17.5097 49.1665 17.4997C49.2365 17.4897 49.3165 17.4697 49.3965 17.4697C49.5265 17.4697 49.6465 17.4897 49.7465 17.5397C49.8465 17.5797 49.9365 17.6497 50.0065 17.7297C50.0765 17.8097 50.1265 17.9097 50.1665 18.0197C50.1965 18.1297 50.2165 18.2597 50.2165 18.3997V19.9497H49.7065V18.3997C49.7065 18.2397 49.6665 18.1097 49.5965 18.0197C49.5165 17.9297 49.4065 17.8797 49.2565 17.8797C49.1465 17.8797 49.0365 17.9097 48.9365 17.9597C48.8365 18.0097 48.7465 18.0797 48.6565 18.1697V19.9397H48.1465V17.5097H48.4565C48.5265 17.5097 48.5665 17.5397 48.5865 17.6097L48.6265 17.8297Z" fill="white"/>
<path d="M52.2064 17.4697C52.3864 17.4697 52.5464 17.4997 52.6964 17.5597C52.8464 17.6197 52.9664 17.6997 53.0664 17.8097C53.1664 17.9197 53.2464 18.0497 53.3064 18.1997C53.3664 18.3497 53.3864 18.5297 53.3864 18.7197C53.3864 18.9097 53.3564 19.0897 53.3064 19.2397C53.2464 19.3897 53.1764 19.5297 53.0664 19.6297C52.9664 19.7397 52.8364 19.8197 52.6964 19.8797C52.5464 19.9397 52.3864 19.9697 52.2064 19.9697C52.0264 19.9697 51.8664 19.9397 51.7164 19.8797C51.5664 19.8197 51.4464 19.7397 51.3464 19.6297C51.2464 19.5197 51.1664 19.3897 51.1064 19.2397C51.0464 19.0897 51.0264 18.9097 51.0264 18.7197C51.0264 18.5297 51.0564 18.3497 51.1064 18.1997C51.1664 18.0497 51.2464 17.9097 51.3464 17.8097C51.4464 17.7097 51.5764 17.6197 51.7164 17.5597C51.8664 17.4997 52.0264 17.4697 52.2064 17.4697ZM52.2064 19.5797C52.4264 19.5797 52.5864 19.5097 52.6964 19.3597C52.8064 19.2097 52.8564 18.9997 52.8564 18.7297C52.8564 18.4597 52.8064 18.2497 52.6964 18.0997C52.5864 17.9497 52.4264 17.8797 52.2064 17.8797C51.9864 17.8797 51.8164 17.9497 51.7064 18.0997C51.5964 18.2497 51.5464 18.4597 51.5464 18.7297C51.5464 18.9997 51.5964 19.2097 51.7064 19.3597C51.8164 19.5097 51.9764 19.5797 52.2064 19.5797Z" fill="white"/>
<path d="M56.2366 16.4102V18.4602H56.3466C56.3466 18.4602 56.4066 18.4602 56.4366 18.4502C56.4666 18.4402 56.4866 18.4202 56.5066 18.3902L57.1866 17.6102C57.1866 17.6102 57.2366 17.5502 57.2666 17.5402C57.2966 17.5202 57.3366 17.5202 57.3766 17.5202H57.8466L57.0266 18.4502C56.9766 18.5102 56.9266 18.5602 56.8666 18.6002C56.8966 18.6202 56.9266 18.6502 56.9466 18.6802C56.9666 18.7102 56.9966 18.7402 57.0166 18.7702L57.8966 19.9602H57.4366C57.4366 19.9602 57.3566 19.9602 57.3266 19.9402C57.2966 19.9302 57.2666 19.9002 57.2466 19.8602L56.5466 18.9102C56.5466 18.9102 56.4966 18.8502 56.4766 18.8402C56.4566 18.8302 56.4166 18.8202 56.3666 18.8202H56.2366V19.9602H55.7266V16.4302H56.2366V16.4102Z" fill="white"/>
<path d="M58.7859 18.7605C58.7859 18.9005 58.8159 19.0205 58.8459 19.1205C58.8859 19.2205 58.9359 19.3005 58.9959 19.3705C59.0559 19.4405 59.1259 19.4905 59.2159 19.5205C59.3059 19.5505 59.3959 19.5705 59.5059 19.5705C59.6159 19.5705 59.6959 19.5605 59.7659 19.5405C59.8359 19.5205 59.9059 19.4905 59.9559 19.4605C60.0059 19.4305 60.0559 19.4105 60.0959 19.3805C60.1359 19.3605 60.1659 19.3505 60.1959 19.3505C60.2359 19.3505 60.2659 19.3705 60.2959 19.4005L60.4459 19.5905C60.3859 19.6605 60.3159 19.7205 60.2359 19.7705C60.1559 19.8205 60.0759 19.8605 59.9959 19.8905C59.9059 19.9205 59.8259 19.9405 59.7359 19.9605C59.6459 19.9805 59.5559 19.9805 59.4759 19.9805C59.3059 19.9805 59.1559 19.9505 59.0059 19.9005C58.8659 19.8405 58.7359 19.7605 58.6359 19.6505C58.5259 19.5405 58.4459 19.4005 58.3859 19.2405C58.3259 19.0805 58.2959 18.8905 58.2959 18.6805C58.2959 18.5105 58.3259 18.3505 58.3759 18.2105C58.4259 18.0705 58.5059 17.9405 58.6059 17.8305C58.7059 17.7205 58.8259 17.6405 58.9659 17.5705C59.1059 17.5105 59.2659 17.4805 59.4459 17.4805C59.5959 17.4805 59.7359 17.5005 59.8659 17.5505C59.9959 17.6005 60.1059 17.6705 60.1959 17.7605C60.2859 17.8505 60.3559 17.9705 60.4159 18.1005C60.4659 18.2405 60.4959 18.3905 60.4959 18.5605C60.4959 18.6405 60.4959 18.6905 60.4659 18.7205C60.4359 18.7505 60.4159 18.7605 60.3659 18.7605H58.8059H58.7859ZM60.0059 18.4405C60.0059 18.3505 59.9959 18.2705 59.9659 18.2005C59.9459 18.1305 59.9059 18.0605 59.8559 18.0105C59.8059 17.9605 59.7459 17.9105 59.6759 17.8805C59.6059 17.8505 59.5259 17.8305 59.4359 17.8305C59.2459 17.8305 59.1059 17.8805 58.9959 17.9905C58.8859 18.1005 58.8259 18.2505 58.7959 18.4405H60.0059Z" fill="white"/>
<path d="M63.3264 16.4102V19.9402H62.8164V16.4102H63.3264Z" fill="white"/>
<path d="M64.9058 16.7697C64.9058 16.7697 64.9058 16.8597 64.8758 16.8997C64.8558 16.9397 64.8358 16.9797 64.7958 17.0097C64.7658 17.0397 64.7258 17.0697 64.6858 17.0797C64.6458 17.0997 64.5958 17.1097 64.5558 17.1097C64.5158 17.1097 64.4658 17.1097 64.4258 17.0797C64.3858 17.0597 64.3458 17.0397 64.3158 17.0097C64.2858 16.9797 64.2658 16.9397 64.2458 16.8997C64.2258 16.8597 64.2158 16.8097 64.2158 16.7697C64.2158 16.7297 64.2158 16.6797 64.2458 16.6397C64.2658 16.5997 64.2858 16.5597 64.3158 16.5297C64.3458 16.4997 64.3858 16.4697 64.4258 16.4597C64.4658 16.4397 64.5058 16.4297 64.5558 16.4297C64.6058 16.4297 64.6458 16.4297 64.6858 16.4597C64.7258 16.4797 64.7658 16.4997 64.7958 16.5297C64.8258 16.5597 64.8558 16.5997 64.8758 16.6397C64.8958 16.6797 64.9058 16.7297 64.9058 16.7697ZM64.8158 17.5097V19.9397H64.3058V17.5097H64.8158Z" fill="white"/>
<path d="M67.9564 17.5098L66.6164 20.6398C66.6164 20.6398 66.5764 20.7098 66.5564 20.7298C66.5364 20.7498 66.4964 20.7598 66.4464 20.7598H66.0664L66.5164 19.7898L65.5264 17.5198H65.9764C65.9764 17.5198 66.0564 17.5198 66.0764 17.5498C66.0964 17.5698 66.1164 17.5898 66.1264 17.6198L66.7064 18.9998C66.7064 18.9998 66.7364 19.0798 66.7464 19.1198C66.7564 19.1598 66.7664 19.1998 66.7764 19.2398C66.7864 19.1998 66.8064 19.1598 66.8164 19.1198C66.8264 19.0798 66.8464 19.0398 66.8564 18.9998L67.4164 17.6198C67.4164 17.6198 67.4464 17.5698 67.4764 17.5498C67.5064 17.5298 67.5364 17.5198 67.5664 17.5198H67.9764L67.9564 17.5098Z" fill="white"/>
<path d="M68.9158 18.7605C68.9158 18.9005 68.9458 19.0205 68.9758 19.1205C69.0158 19.2205 69.0658 19.3005 69.1258 19.3705C69.1858 19.4405 69.2558 19.4905 69.3458 19.5205C69.4358 19.5505 69.5258 19.5705 69.6358 19.5705C69.7458 19.5705 69.8258 19.5605 69.8958 19.5405C69.9658 19.5205 70.0358 19.4905 70.0858 19.4605C70.1358 19.4305 70.1858 19.4105 70.2258 19.3805C70.2658 19.3605 70.2958 19.3505 70.3358 19.3505C70.3758 19.3505 70.4058 19.3705 70.4358 19.4005L70.5858 19.5905C70.5258 19.6605 70.4558 19.7205 70.3758 19.7705C70.2958 19.8205 70.2158 19.8605 70.1358 19.8905C70.0558 19.9205 69.9658 19.9405 69.8758 19.9605C69.7858 19.9705 69.6958 19.9805 69.6058 19.9805C69.4358 19.9805 69.2858 19.9505 69.1358 19.9005C68.9958 19.8405 68.8658 19.7605 68.7658 19.6505C68.6558 19.5405 68.5758 19.4005 68.5158 19.2405C68.4558 19.0805 68.4258 18.8905 68.4258 18.6805C68.4258 18.5105 68.4558 18.3505 68.5058 18.2105C68.5558 18.0605 68.6358 17.9405 68.7358 17.8305C68.8358 17.7205 68.9558 17.6405 69.0958 17.5705C69.2358 17.5105 69.3958 17.4805 69.5758 17.4805C69.7258 17.4805 69.8658 17.5005 69.9958 17.5505C70.1258 17.6005 70.2358 17.6705 70.3258 17.7605C70.4158 17.8505 70.4858 17.9705 70.5458 18.1005C70.5958 18.2405 70.6258 18.3905 70.6258 18.5605C70.6258 18.6405 70.6258 18.6905 70.5958 18.7205C70.5758 18.7505 70.5458 18.7605 70.4958 18.7605H68.9358H68.9158ZM70.1358 18.4405C70.1358 18.3505 70.1258 18.2705 70.0958 18.2005C70.0758 18.1305 70.0358 18.0605 69.9858 18.0105C69.9358 17.9605 69.8758 17.9105 69.8058 17.8805C69.7358 17.8505 69.6558 17.8305 69.5658 17.8305C69.3758 17.8305 69.2358 17.8805 69.1258 17.9905C69.0158 18.1005 68.9558 18.2505 68.9258 18.4405H70.1358Z" fill="white"/>
<path d="M71.3359 19.6505C71.3359 19.6505 71.3359 19.5605 71.3659 19.5205C71.3959 19.4805 71.4059 19.4405 71.4359 19.4105C71.4659 19.3805 71.4959 19.3605 71.5359 19.3405C71.5759 19.3205 71.6159 19.3105 71.6659 19.3105C71.7159 19.3105 71.7559 19.3105 71.7959 19.3405C71.8359 19.3605 71.8759 19.3805 71.9059 19.4105C71.9359 19.4405 71.9559 19.4805 71.9759 19.5205C71.9959 19.5605 72.0059 19.6005 72.0059 19.6505C72.0059 19.7005 72.0059 19.7405 71.9759 19.7805C71.9559 19.8205 71.9359 19.8505 71.9059 19.8905C71.8759 19.9205 71.8359 19.9405 71.7959 19.9605C71.7559 19.9805 71.7159 19.9905 71.6659 19.9905C71.6159 19.9905 71.5759 19.9905 71.5359 19.9605C71.4959 19.9405 71.4559 19.9205 71.4359 19.8905C71.4059 19.8605 71.3859 19.8205 71.3659 19.7805C71.3459 19.7405 71.3359 19.7005 71.3359 19.6505Z" fill="white"/>
<path d="M6.9661 10.5301C6.9661 9.8301 6.9661 9.1301 6.9661 8.4301C6.9661 8.2901 6.9961 8.2201 7.1261 8.1601C7.8961 7.7801 8.2761 6.9401 8.0761 6.1001C7.8861 5.3001 7.1461 4.7301 6.3161 4.7301C5.4861 4.7301 4.7561 5.3101 4.5561 6.1401C4.3661 6.9401 4.7561 7.7901 5.5061 8.1601C5.6561 8.2301 5.6961 8.3201 5.6861 8.4701C5.6861 9.8401 5.6861 11.2101 5.6861 12.5801C5.6861 12.8701 5.6861 12.8701 5.4061 12.8301C3.3061 12.4901 1.7261 11.3801 0.7361 9.5001C-1.2839 5.6901 1.0561 0.970096 5.2861 0.280096C8.6661 -0.279904 11.8761 1.9601 12.5261 5.3201C13.2161 8.8501 10.8561 12.2501 7.3061 12.8201C7.07943 12.8601 6.9661 12.7634 6.9661 12.5301V10.5401V10.5301Z" fill="white"/>
<path d="M34.2063 6.13977C34.3563 6.23977 34.5163 6.31977 34.6563 6.42977C35.6763 7.19977 36.0163 8.22976 35.9063 9.39977C35.7363 11.1198 34.5363 12.2698 32.5763 12.6498C32.1263 12.7398 31.6663 12.7798 31.2063 12.7798C29.6363 12.7798 28.0563 12.7798 26.4863 12.7798C26.2963 12.7798 26.2363 12.7398 26.2363 12.5498C26.2363 8.52977 26.2363 4.50977 26.2363 0.489766C26.2363 0.309766 26.2863 0.259766 26.4863 0.259766C28.0763 0.259766 29.6663 0.259766 31.2563 0.259766C32.3163 0.269766 33.3263 0.479766 34.1663 1.11977C35.7763 2.32977 35.8463 4.70977 34.3263 6.01977C34.2863 6.04977 34.2563 6.07977 34.2163 6.11977L34.2063 6.13977ZM29.0863 6.51977C29.0863 7.74977 29.0863 8.96976 29.0863 10.1998C29.0863 10.3698 29.1263 10.4298 29.3163 10.4198C30.0163 10.4098 30.7163 10.4198 31.4163 10.4198C32.3563 10.4198 32.9863 9.84977 33.0263 8.99977C33.0663 8.12977 32.5163 7.54977 31.5663 7.46977C31.2563 7.43977 30.9363 7.44977 30.6263 7.45977C30.4863 7.45977 30.4463 7.41977 30.4463 7.28977C30.4463 6.62977 30.4463 5.96977 30.4463 5.30977C30.4463 5.16977 30.4963 5.13977 30.6363 5.14977C30.8863 5.14977 31.1363 5.14977 31.3763 5.14977C31.7463 5.11977 32.0963 5.01977 32.3063 4.69977C32.6063 4.22977 32.6163 3.72977 32.3663 3.24977C32.1263 2.78977 31.6663 2.64977 31.1563 2.63977C30.5463 2.63977 29.9363 2.63977 29.3263 2.63977C29.1463 2.63977 29.0963 2.67977 29.0963 2.85977C29.0963 4.08977 29.0963 5.30977 29.0963 6.53977L29.0863 6.51977Z" fill="white"/>
<path d="M20.6561 0.0900781C22.0761 0.110078 23.3561 0.450078 24.4661 1.28008C24.8361 1.56008 24.8361 1.57008 24.6161 1.95008C24.2861 2.52008 23.9461 3.10008 23.6361 3.68008C23.5361 3.86008 23.4861 3.83008 23.3461 3.72008C22.5961 3.10008 21.7261 2.70008 20.7061 2.65008C20.2761 2.63008 19.8661 2.71008 19.5061 2.94008C18.8661 3.34008 18.8161 4.02008 19.3861 4.49008C19.6661 4.71008 19.9861 4.86008 20.3161 5.00008C21.1261 5.35008 21.9861 5.62008 22.7661 6.02008C23.5961 6.45008 24.3161 6.98008 24.7061 7.82008C25.4361 9.40008 24.8761 11.8001 22.3961 12.6401C20.6561 13.2301 18.9561 12.9901 17.3261 12.2401C16.7561 11.9801 16.2461 11.6301 15.7961 11.2001C15.6861 11.0901 15.6861 11.0301 15.7761 10.9101C16.2361 10.3301 16.6961 9.75008 17.1361 9.16008C17.2561 9.00008 17.3161 9.02008 17.4561 9.14008C18.2961 9.86008 19.2561 10.3401 20.4261 10.3901C20.7461 10.4001 21.0461 10.3601 21.3461 10.2501C22.0661 9.97008 22.3861 9.02008 21.5861 8.46008C21.2261 8.21008 20.8361 8.02008 20.4261 7.85008C19.7461 7.56008 19.0461 7.31008 18.3861 6.98008C17.5261 6.55008 16.7561 6.02008 16.3261 5.16008C15.6661 3.85008 16.0861 2.17008 17.3161 1.16008C18.2761 0.380078 19.4161 0.0800781 20.6461 0.0800781L20.6561 0.0900781Z" fill="white"/>
<path d="M40.2458 6.54978C40.2458 8.53978 40.2458 10.5398 40.2458 12.5298C40.2458 12.7298 40.1958 12.7898 39.9758 12.7798C39.1258 12.7698 38.2758 12.7698 37.4258 12.7798C37.2558 12.7798 37.2158 12.7298 37.2158 12.5898C37.2158 8.54978 37.2158 4.49978 37.2158 0.459782C37.2158 0.309782 37.2558 0.259782 37.4258 0.269782C38.2858 0.269782 39.1358 0.279782 39.9958 0.269782C40.1958 0.269782 40.2358 0.319782 40.2358 0.499782C40.2358 2.51978 40.2358 4.52978 40.2358 6.54978H40.2458Z" fill="white"/>
<path d="M51.9359 10.74L51.3259 12.78H44.0059V0.29H46.6659V10.74H51.9459H51.9359ZM55.7059 1.81C55.7059 2.16 55.5759 2.47 55.3259 2.75C55.0759 3.03 54.7459 3.17 54.3559 3.17C53.9659 3.17 53.6159 3.04 53.3459 2.79C53.0759 2.54 52.9359 2.23 52.9359 1.86C52.9359 1.49 53.0659 1.15 53.3159 0.88C53.5659 0.61 53.8959 0.48 54.3059 0.48C54.6859 0.48 55.0159 0.61 55.2959 0.86C55.5759 1.12 55.7159 1.43 55.7159 1.8L55.7059 1.81ZM55.4659 12.78H53.0459V4.89L55.4659 3.73V12.78ZM62.4559 0.32L61.9359 2.16C61.9359 2.16 61.8459 2.1 61.8259 2.08C61.6059 1.96 61.3859 1.91 61.1659 1.91C60.5759 1.91 60.2759 2.35 60.2759 3.23V4.06H62.0859L61.6059 5.92H60.2759V12.77H57.8559V5.92H56.5059L56.9859 4.06H57.8559V2.95C57.8559 2.06 58.1059 1.35 58.6159 0.81C59.1259 0.27 59.8159 0 60.6959 0C61.0559 0 61.4559 0.05 61.8959 0.16C62.0459 0.2 62.2259 0.25 62.4459 0.32H62.4559ZM71.9559 7.1L65.5759 10.25C65.7859 10.48 65.9659 10.64 66.1059 10.75C66.5559 11.08 67.0359 11.25 67.5459 11.25C68.1259 11.25 68.6559 11.05 69.1459 10.64C69.3059 10.51 69.4959 10.3 69.7159 10.01L71.3759 10.98C71.0059 11.45 70.6759 11.79 70.3759 12.02C69.4759 12.71 68.4459 13.06 67.2759 13.06C65.9559 13.06 64.8359 12.62 63.8959 11.75C62.9559 10.88 62.4859 9.79 62.4859 8.49C62.4859 7.19 62.9159 6.14 63.7759 5.23C64.6959 4.26 65.8759 3.78 67.2959 3.78C68.3559 3.78 69.2959 4.08 70.1259 4.68C70.9559 5.28 71.5659 6.09 71.9459 7.11L71.9559 7.1ZM69.4059 6.49C69.2059 6.19 68.9259 5.94 68.5659 5.75C68.2059 5.56 67.7959 5.47 67.3559 5.47C66.6259 5.47 66.0059 5.75 65.4759 6.3C64.9459 6.85 64.6859 7.44 64.6859 8.06C64.6859 8.2 64.6959 8.33 64.7259 8.44C64.7459 8.55 64.7759 8.65 64.7959 8.75L69.4059 6.49Z" fill="white"/>
</svg>
